<svg width="27" height="27" viewBox="0 0 27 27" fill="none" xmlns="http://www.w3.org/2000/svg">
<g clip-path="url(#clip0_2003_2202)">
<path d="M13.5 19.8C14.39 19.8 15.26 19.5361 16.0001 19.0416C16.7401 18.5471 17.3169 17.8443 17.6575 17.0221C17.9981 16.1998 18.0872 15.295 17.9135 14.4221C17.7399 13.5492 17.3113 12.7473 16.682 12.118C16.0526 11.4887 15.2508 11.0601 14.3779 10.8865C13.505 10.7128 12.6002 10.8019 11.7779 11.1425C10.9557 11.4831 10.2529 12.0599 9.75839 12.7999C9.26392 13.5399 9 14.41 9 15.3C9.00131 16.4931 9.47584 17.6369 10.3195 18.4805C11.1631 19.3242 12.3069 19.7987 13.5 19.8ZM13.5 11.7C14.212 11.7 14.908 11.9111 15.5001 12.3067C16.0921 12.7023 16.5535 13.2645 16.826 13.9223C17.0984 14.5801 17.1697 15.304 17.0308 16.0023C16.8919 16.7006 16.5491 17.3421 16.0456 17.8456C15.5421 18.349 14.9007 18.6919 14.2023 18.8308C13.504 18.9697 12.7802 18.8984 12.1223 18.626C11.4645 18.3535 10.9023 17.8921 10.5067 17.3C10.1111 16.708 9.9 16.012 9.9 15.3C9.90107 14.3455 10.2807 13.4305 10.9556 12.7556C11.6305 12.0807 12.5455 11.7011 13.5 11.7Z" fill="#262626" style="mix-blend-mode:color-dodge"/>
<path d="M13.5 19.8C14.39 19.8 15.26 19.5361 16.0001 19.0416C16.7401 18.5471 17.3169 17.8443 17.6575 17.0221C17.9981 16.1998 18.0872 15.295 17.9135 14.4221C17.7399 13.5492 17.3113 12.7473 16.682 12.118C16.0526 11.4887 15.2508 11.0601 14.3779 10.8865C13.505 10.7128 12.6002 10.8019 11.7779 11.1425C10.9557 11.4831 10.2529 12.0599 9.75839 12.7999C9.26392 13.5399 9 14.41 9 15.3C9.00131 16.4931 9.47584 17.6369 10.3195 18.4805C11.1631 19.3242 12.3069 19.7987 13.5 19.8ZM13.5 11.7C14.212 11.7 14.908 11.9111 15.5001 12.3067C16.0921 12.7023 16.5535 13.2645 16.826 13.9223C17.0984 14.5801 17.1697 15.304 17.0308 16.0023C16.8919 16.7006 16.5491 17.3421 16.0456 17.8456C15.5421 18.349 14.9007 18.6919 14.2023 18.8308C13.504 18.9697 12.7802 18.8984 12.1223 18.626C11.4645 18.3535 10.9023 17.8921 10.5067 17.3C10.1111 16.708 9.9 16.012 9.9 15.3C9.90107 14.3455 10.2807 13.4305 10.9556 12.7556C11.6305 12.0807 12.5455 11.7011 13.5 11.7Z" fill="url(#paint0_linear_2003_2202)"/>
<path d="M25.7481 15.3H22.8321C22.1477 13.0671 20.8543 11.0693 19.0971 9.531L16.5969 7.3431C16.7908 7.18851 16.9379 6.98308 17.0218 6.74975C17.1058 6.51642 17.1233 6.26435 17.0723 6.02167C17.0213 5.77899 16.9039 5.55524 16.7332 5.37539C16.5625 5.19553 16.3452 5.06664 16.1055 5.0031L18.3748 1.5993C18.429 1.51818 18.4554 1.42166 18.4499 1.32427C18.4445 1.22687 18.4076 1.13388 18.3447 1.0593C18.3334 1.0467 18.319 1.03905 18.3069 1.02735L18.3105 1.02375C17.6173 0.370714 16.7023 0.00486268 15.75 0C14.9986 0.00139281 14.2655 0.231493 13.648 0.6597C12.2508 0.0486 10.8 -0.56385 8.73 0.99C8.63795 1.05902 8.57583 1.16068 8.55641 1.27409C8.53699 1.3875 8.56175 1.50403 8.6256 1.59975L10.8949 5.00355C10.6786 5.06054 10.4801 5.17098 10.3175 5.32473C10.155 5.47848 10.0337 5.6706 9.96482 5.88345C9.89591 6.09629 9.8816 6.32304 9.92319 6.54287C9.96478 6.76269 10.0609 6.96854 10.2028 7.1415L8.073 9.1296L8.6877 9.78705L10.9773 7.65H15.5808L18.5058 10.2082C20.0659 11.5747 21.2335 13.3323 21.8884 15.3H20.1519C19.82 15.3004 19.5018 15.4324 19.2671 15.6671C19.0324 15.9018 18.9004 16.22 18.9 16.5519V17.6481C18.9013 17.9424 19.0072 18.2266 19.1988 18.45C19.0072 18.6734 18.9013 18.9576 18.9 19.2519V20.3481C18.9018 20.48 18.9246 20.6108 18.9675 20.7355C18.693 20.7997 18.4482 20.9545 18.2727 21.175C18.0971 21.3954 18.001 21.6687 18 21.9505V23.0467C18.001 23.3286 18.0971 23.6019 18.2727 23.8223C18.4482 24.0428 18.693 24.1976 18.9675 24.2617C18.9246 24.3865 18.9018 24.5173 18.9 24.6492V25.7454C18.9021 25.7982 18.9073 25.8508 18.9157 25.9029C18.472 26.0321 18.0122 26.0985 17.55 26.1H17.4933C17.5291 25.9861 17.5482 25.8675 17.55 25.7481V24.6519C17.5487 24.3576 17.4428 24.0734 17.2512 23.85C17.4428 23.6266 17.5487 23.3424 17.55 23.0481V21.9519C17.5496 21.62 17.4176 21.3018 17.1829 21.0671C16.9482 20.8324 16.63 20.7004 16.2981 20.7H10.7019C10.37 20.7004 10.0518 20.8324 9.81707 21.0671C9.58237 21.3018 9.45036 21.62 9.45 21.9519V23.0481C9.4513 23.3424 9.55721 23.6266 9.7488 23.85C9.55721 24.0734 9.4513 24.3576 9.45 24.6519V25.7481C9.45176 25.8675 9.47086 25.9861 9.5067 26.1H9.45C8.9879 26.0994 8.52817 26.0339 8.08425 25.9056C8.09268 25.8535 8.09794 25.8009 8.1 25.7481V24.6519C8.09818 24.52 8.0754 24.3892 8.0325 24.2645C8.30696 24.2003 8.55178 24.0455 8.72735 23.825C8.90292 23.6046 8.99898 23.3313 9 23.0494V21.9519C8.99898 21.6701 8.90292 21.3968 8.72735 21.1763C8.55178 20.9558 8.30696 20.801 8.0325 20.7369C8.0754 20.6121 8.09818 20.4814 8.1 20.3494V19.2519C8.0987 18.9576 7.99279 18.6734 7.8012 18.45C7.99279 18.2266 8.0987 17.9424 8.1 17.6481V16.5519C8.09964 16.22 7.96763 15.9018 7.73293 15.6671C7.49823 15.4324 7.18001 15.3004 6.8481 15.3H5.0346C5.60176 13.4737 6.60791 11.8143 7.965 10.467L7.335 9.82755C5.80495 11.3447 4.68943 13.2289 4.095 15.3H1.2519C0.919985 15.3004 0.601767 15.4324 0.367068 15.6671C0.132368 15.9018 0.000357346 16.22 0 16.5519V17.6481C0.00130366 17.9424 0.107213 18.2266 0.2988 18.45C0.107213 18.6734 0.00130366 18.9576 0 19.2519V20.3481C0.00101879 20.6299 0.097082 20.9032 0.272653 21.1237C0.448225 21.3442 0.693038 21.499 0.9675 21.5631C0.924602 21.6879 0.901818 21.8186 0.9 21.9505V23.0467C0.901818 23.1787 0.924602 23.3094 0.9675 23.4342C0.692589 23.4984 0.447437 23.6536 0.271817 23.8747C0.096197 24.0957 0.00041145 24.3696 0 24.6519V25.7481C0.000357346 26.08 0.132368 26.3982 0.367068 26.6329C0.601767 26.8676 0.919985 26.9996 1.2519 27H6.8481C7.13778 26.9988 7.41787 26.8961 7.63965 26.7097C8.22403 26.9013 8.83502 26.9993 9.45 27H17.55C18.165 26.9993 18.776 26.9013 19.3603 26.7097C19.5821 26.8961 19.8622 26.9988 20.1519 27H25.7481C26.08 26.9996 26.3982 26.8676 26.6329 26.6329C26.8676 26.3982 26.9996 26.08 27 25.7481V24.6519C26.999 24.3701 26.9029 24.0968 26.7273 23.8763C26.5518 23.6558 26.307 23.501 26.0325 23.4369C26.0754 23.3121 26.0982 23.1814 26.1 23.0494V21.9519C26.0982 21.82 26.0754 21.6892 26.0325 21.5645C26.307 21.5003 26.5518 21.3455 26.7273 21.125C26.9029 20.9046 26.999 20.6313 27 20.3494V19.2519C26.9987 18.9576 26.8928 18.6734 26.7012 18.45C26.8928 18.2266 26.9987 17.9424 27 17.6481V16.5519C26.9996 16.22 26.8676 15.9018 26.6329 15.6671C26.3982 15.4324 26.08 15.3004 25.7481 15.3ZM17.0298 1.215C16.2684 1.41061 15.4655 1.36948 14.728 1.0971C15.0531 0.967244 15.3999 0.900357 15.75 0.9C16.195 0.906142 16.6328 1.01388 17.0298 1.215ZM13.3249 1.5021C14.337 1.94535 15.4544 2.43585 16.9173 2.1645L15.0592 4.95H11.9407L9.61875 1.467C11.092 0.5229 12.0879 0.9585 13.3249 1.50075V1.5021ZM11.25 6.75C11.1307 6.75 11.0162 6.70259 10.9318 6.6182C10.8474 6.53381 10.8 6.41935 10.8 6.3C10.8 6.18065 10.8474 6.06619 10.9318 5.9818C11.0162 5.89741 11.1307 5.85 11.25 5.85H15.75C15.8693 5.85 15.9838 5.89741 16.0682 5.9818C16.1526 6.06619 16.2 6.18065 16.2 6.3C16.2 6.41935 16.1526 6.53381 16.0682 6.6182C15.9838 6.70259 15.8693 6.75 15.75 6.75H11.25ZM8.1 23.0481C8.09988 23.1414 8.06277 23.2308 7.9968 23.2968C7.93083 23.3628 7.84139 23.3999 7.7481 23.4H2.1519C2.05861 23.3999 1.96917 23.3628 1.9032 23.2968C1.83723 23.2308 1.80012 23.1414 1.8 23.0481V21.9519C1.80012 21.8586 1.83723 21.7692 1.9032 21.7032C1.96917 21.6372 2.05861 21.6001 2.1519 21.6H2.7V22.5H3.6V21.6H4.5V22.5H5.4V21.6H6.3V22.5H7.2V21.6H7.7481C7.84139 21.6001 7.93083 21.6372 7.9968 21.7032C8.06277 21.7692 8.09988 21.8586 8.1 21.9519V23.0481ZM0.9 16.5519C0.900119 16.4586 0.937232 16.3692 1.0032 16.3032C1.06917 16.2372 1.15861 16.2001 1.2519 16.2H1.8V17.1H2.7V16.2H3.6V17.1H4.5V16.2H5.4V17.1H6.3V16.2H6.8481C6.94139 16.2001 7.03083 16.2372 7.0968 16.3032C7.16277 16.3692 7.19988 16.4586 7.2 16.5519V17.6481C7.19988 17.7414 7.16277 17.8308 7.0968 17.8968C7.03083 17.9628 6.94139 17.9999 6.8481 18H1.2519C1.15861 17.9999 1.06917 17.9628 1.0032 17.8968C0.937232 17.8308 0.900119 17.7414 0.9 17.6481V16.5519ZM0.9 19.2519C0.900119 19.1586 0.937232 19.0692 1.0032 19.0032C1.06917 18.9372 1.15861 18.9001 1.2519 18.9H1.8V19.8H2.7V18.9H3.6V19.8H4.5V18.9H5.4V19.8H6.3V18.9H6.8481C6.94139 18.9001 7.03083 18.9372 7.0968 19.0032C7.16277 19.0692 7.19988 19.1586 7.2 19.2519V20.3481C7.19988 20.4414 7.16277 20.5308 7.0968 20.5968C7.03083 20.6628 6.94139 20.6999 6.8481 20.7H1.2519C1.15861 20.6999 1.06917 20.6628 1.0032 20.5968C0.937232 20.5308 0.900119 20.4414 0.9 20.3481V19.2519ZM7.2 25.7481C7.19988 25.8414 7.16277 25.9308 7.0968 25.9968C7.03083 26.0628 6.94139 26.0999 6.8481 26.1H1.2519C1.15861 26.0999 1.06917 26.0628 1.0032 25.9968C0.937232 25.9308 0.900119 25.8414 0.9 25.7481V24.6519C0.900119 24.5586 0.937232 24.4692 1.0032 24.4032C1.06917 24.3372 1.15861 24.3001 1.2519 24.3H1.8V25.2H2.7V24.3H3.6V25.2H4.5V24.3H5.4V25.2H6.3V24.3H6.8481C6.94139 24.3001 7.03083 24.3372 7.0968 24.4032C7.16277 24.4692 7.19988 24.5586 7.2 24.6519V25.7481ZM10.35 21.9519C10.3501 21.8586 10.3872 21.7692 10.4532 21.7032C10.5192 21.6372 10.6086 21.6001 10.7019 21.6H11.25V22.5H12.15V21.6H13.05V22.5H13.95V21.6H14.85V22.5H15.75V21.6H16.2981C16.3914 21.6001 16.4808 21.6372 16.5468 21.7032C16.6128 21.7692 16.6499 21.8586 16.65 21.9519V23.0481C16.6499 23.1414 16.6128 23.2308 16.5468 23.2968C16.4808 23.3628 16.3914 23.3999 16.2981 23.4H10.7019C10.6086 23.3999 10.5192 23.3628 10.4532 23.2968C10.3872 23.2308 10.3501 23.1414 10.35 23.0481V21.9519ZM10.7019 26.1C10.6086 26.0999 10.5192 26.0628 10.4532 25.9968C10.3872 25.9308 10.3501 25.8414 10.35 25.7481V24.6519C10.3501 24.5586 10.3872 24.4692 10.4532 24.4032C10.5192 24.3372 10.6086 24.3001 10.7019 24.3H11.25V25.2H12.15V24.3H13.05V25.2H13.95V24.3H14.85V25.2H15.75V24.3H16.2981C16.3914 24.3001 16.4808 24.3372 16.5468 24.4032C16.6128 24.4692 16.6499 24.5586 16.65 24.6519V25.7481C16.6499 25.8414 16.6128 25.9308 16.5468 25.9968C16.4808 26.0628 16.3914 26.0999 16.2981 26.1H10.7019ZM19.8 16.5519C19.8001 16.4586 19.8372 16.3692 19.9032 16.3032C19.9692 16.2372 20.0586 16.2001 20.1519 16.2H20.7V17.1H21.6V16.2H22.5V17.1H23.4V16.2H24.3V17.1H25.2V16.2H25.7481C25.8414 16.2001 25.9308 16.2372 25.9968 16.3032C26.0628 16.3692 26.0999 16.4586 26.1 16.5519V17.6481C26.0999 17.7414 26.0628 17.8308 25.9968 17.8968C25.9308 17.9628 25.8414 17.9999 25.7481 18H20.1519C20.0586 17.9999 19.9692 17.9628 19.9032 17.8968C19.8372 17.8308 19.8001 17.7414 19.8 17.6481V16.5519ZM18.9 21.9519C18.9001 21.8586 18.9372 21.7692 19.0032 21.7032C19.0692 21.6372 19.1586 21.6001 19.2519 21.6H19.8V22.5H20.7V21.6H21.6V22.5H22.5V21.6H23.4V22.5H24.3V21.6H24.8481C24.9414 21.6001 25.0308 21.6372 25.0968 21.7032C25.1628 21.7692 25.1999 21.8586 25.2 21.9519V23.0481C25.1999 23.1414 25.1628 23.2308 25.0968 23.2968C25.0308 23.3628 24.9414 23.3999 24.8481 23.4H19.2519C19.1586 23.3999 19.0692 23.3628 19.0032 23.2968C18.9372 23.2308 18.9001 23.1414 18.9 23.0481V21.9519ZM26.1 25.7481C26.0999 25.8414 26.0628 25.9308 25.9968 25.9968C25.9308 26.0628 25.8414 26.0999 25.7481 26.1H20.1519C20.0586 26.0999 19.9692 26.0628 19.9032 25.9968C19.8372 25.9308 19.8001 25.8414 19.8 25.7481V24.6519C19.8001 24.5586 19.8372 24.4692 19.9032 24.4032C19.9692 24.3372 20.0586 24.3001 20.1519 24.3H20.7V25.2H21.6V24.3H22.5V25.2H23.4V24.3H24.3V25.2H25.2V24.3H25.7481C25.8414 24.3001 25.9308 24.3372 25.9968 24.4032C26.0628 24.4692 26.0999 24.5586 26.1 24.6519V25.7481ZM26.1 20.3481C26.0999 20.4414 26.0628 20.5308 25.9968 20.5968C25.9308 20.6628 25.8414 20.6999 25.7481 20.7H20.1519C20.0586 20.6999 19.9692 20.6628 19.9032 20.5968C19.8372 20.5308 19.8001 20.4414 19.8 20.3481V19.2519C19.8001 19.1586 19.8372 19.0692 19.9032 19.0032C19.9692 18.9372 20.0586 18.9001 20.1519 18.9H20.7V19.8H21.6V18.9H22.5V19.8H23.4V18.9H24.3V19.8H25.2V18.9H25.7481C25.8414 18.9001 25.9308 18.9372 25.9968 19.0032C26.0628 19.0692 26.0999 19.1586 26.1 19.2519V20.3481Z" fill="#262626" style="mix-blend-mode:color-dodge"/>
<path d="M25.7481 15.3H22.8321C22.1477 13.0671 20.8543 11.0693 19.0971 9.531L16.5969 7.3431C16.7908 7.18851 16.9379 6.98308 17.0218 6.74975C17.1058 6.51642 17.1233 6.26435 17.0723 6.02167C17.0213 5.77899 16.9039 5.55524 16.7332 5.37539C16.5625 5.19553 16.3452 5.06664 16.1055 5.0031L18.3748 1.5993C18.429 1.51818 18.4554 1.42166 18.4499 1.32427C18.4445 1.22687 18.4076 1.13388 18.3447 1.0593C18.3334 1.0467 18.319 1.03905 18.3069 1.02735L18.3105 1.02375C17.6173 0.370714 16.7023 0.00486268 15.75 0C14.9986 0.00139281 14.2655 0.231493 13.648 0.6597C12.2508 0.0486 10.8 -0.56385 8.73 0.99C8.63795 1.05902 8.57583 1.16068 8.55641 1.27409C8.53699 1.3875 8.56175 1.50403 8.6256 1.59975L10.8949 5.00355C10.6786 5.06054 10.4801 5.17098 10.3175 5.32473C10.155 5.47848 10.0337 5.6706 9.96482 5.88345C9.89591 6.09629 9.8816 6.32304 9.92319 6.54287C9.96478 6.76269 10.0609 6.96854 10.2028 7.1415L8.073 9.1296L8.6877 9.78705L10.9773 7.65H15.5808L18.5058 10.2082C20.0659 11.5747 21.2335 13.3323 21.8884 15.3H20.1519C19.82 15.3004 19.5018 15.4324 19.2671 15.6671C19.0324 15.9018 18.9004 16.22 18.9 16.5519V17.6481C18.9013 17.9424 19.0072 18.2266 19.1988 18.45C19.0072 18.6734 18.9013 18.9576 18.9 19.2519V20.3481C18.9018 20.48 18.9246 20.6108 18.9675 20.7355C18.693 20.7997 18.4482 20.9545 18.2727 21.175C18.0971 21.3954 18.001 21.6687 18 21.9505V23.0467C18.001 23.3286 18.0971 23.6019 18.2727 23.8223C18.4482 24.0428 18.693 24.1976 18.9675 24.2617C18.9246 24.3865 18.9018 24.5173 18.9 24.6492V25.7454C18.9021 25.7982 18.9073 25.8508 18.9157 25.9029C18.472 26.0321 18.0122 26.0985 17.55 26.1H17.4933C17.5291 25.9861 17.5482 25.8675 17.55 25.7481V24.6519C17.5487 24.3576 17.4428 24.0734 17.2512 23.85C17.4428 23.6266 17.5487 23.3424 17.55 23.0481V21.9519C17.5496 21.62 17.4176 21.3018 17.1829 21.0671C16.9482 20.8324 16.63 20.7004 16.2981 20.7H10.7019C10.37 20.7004 10.0518 20.8324 9.81707 21.0671C9.58237 21.3018 9.45036 21.62 9.45 21.9519V23.0481C9.4513 23.3424 9.55721 23.6266 9.7488 23.85C9.55721 24.0734 9.4513 24.3576 9.45 24.6519V25.7481C9.45176 25.8675 9.47086 25.9861 9.5067 26.1H9.45C8.9879 26.0994 8.52817 26.0339 8.08425 25.9056C8.09268 25.8535 8.09794 25.8009 8.1 25.7481V24.6519C8.09818 24.52 8.0754 24.3892 8.0325 24.2645C8.30696 24.2003 8.55178 24.0455 8.72735 23.825C8.90292 23.6046 8.99898 23.3313 9 23.0494V21.9519C8.99898 21.6701 8.90292 21.3968 8.72735 21.1763C8.55178 20.9558 8.30696 20.801 8.0325 20.7369C8.0754 20.6121 8.09818 20.4814 8.1 20.3494V19.2519C8.0987 18.9576 7.99279 18.6734 7.8012 18.45C7.99279 18.2266 8.0987 17.9424 8.1 17.6481V16.5519C8.09964 16.22 7.96763 15.9018 7.73293 15.6671C7.49823 15.4324 7.18001 15.3004 6.8481 15.3H5.0346C5.60176 13.4737 6.60791 11.8143 7.965 10.467L7.335 9.82755C5.80495 11.3447 4.68943 13.2289 4.095 15.3H1.2519C0.919985 15.3004 0.601767 15.4324 0.367068 15.6671C0.132368 15.9018 0.000357346 16.22 0 16.5519V17.6481C0.00130366 17.9424 0.107213 18.2266 0.2988 18.45C0.107213 18.6734 0.00130366 18.9576 0 19.2519V20.3481C0.00101879 20.6299 0.097082 20.9032 0.272653 21.1237C0.448225 21.3442 0.693038 21.499 0.9675 21.5631C0.924602 21.6879 0.901818 21.8186 0.9 21.9505V23.0467C0.901818 23.1787 0.924602 23.3094 0.9675 23.4342C0.692589 23.4984 0.447437 23.6536 0.271817 23.8747C0.096197 24.0957 0.00041145 24.3696 0 24.6519V25.7481C0.000357346 26.08 0.132368 26.3982 0.367068 26.6329C0.601767 26.8676 0.919985 26.9996 1.2519 27H6.8481C7.13778 26.9988 7.41787 26.8961 7.63965 26.7097C8.22403 26.9013 8.83502 26.9993 9.45 27H17.55C18.165 26.9993 18.776 26.9013 19.3603 26.7097C19.5821 26.8961 19.8622 26.9988 20.1519 27H25.7481C26.08 26.9996 26.3982 26.8676 26.6329 26.6329C26.8676 26.3982 26.9996 26.08 27 25.7481V24.6519C26.999 24.3701 26.9029 24.0968 26.7273 23.8763C26.5518 23.6558 26.307 23.501 26.0325 23.4369C26.0754 23.3121 26.0982 23.1814 26.1 23.0494V21.9519C26.0982 21.82 26.0754 21.6892 26.0325 21.5645C26.307 21.5003 26.5518 21.3455 26.7273 21.125C26.9029 20.9046 26.999 20.6313 27 20.3494V19.2519C26.9987 18.9576 26.8928 18.6734 26.7012 18.45C26.8928 18.2266 26.9987 17.9424 27 17.6481V16.5519C26.9996 16.22 26.8676 15.9018 26.6329 15.6671C26.3982 15.4324 26.08 15.3004 25.7481 15.3ZM17.0298 1.215C16.2684 1.41061 15.4655 1.36948 14.728 1.0971C15.0531 0.967244 15.3999 0.900357 15.75 0.9C16.195 0.906142 16.6328 1.01388 17.0298 1.215ZM13.3249 1.5021C14.337 1.94535 15.4544 2.43585 16.9173 2.1645L15.0592 4.95H11.9407L9.61875 1.467C11.092 0.5229 12.0879 0.9585 13.3249 1.50075V1.5021ZM11.25 6.75C11.1307 6.75 11.0162 6.70259 10.9318 6.6182C10.8474 6.53381 10.8 6.41935 10.8 6.3C10.8 6.18065 10.8474 6.06619 10.9318 5.9818C11.0162 5.89741 11.1307 5.85 11.25 5.85H15.75C15.8693 5.85 15.9838 5.89741 16.0682 5.9818C16.1526 6.06619 16.2 6.18065 16.2 6.3C16.2 6.41935 16.1526 6.53381 16.0682 6.6182C15.9838 6.70259 15.8693 6.75 15.75 6.75H11.25ZM8.1 23.0481C8.09988 23.1414 8.06277 23.2308 7.9968 23.2968C7.93083 23.3628 7.84139 23.3999 7.7481 23.4H2.1519C2.05861 23.3999 1.96917 23.3628 1.9032 23.2968C1.83723 23.2308 1.80012 23.1414 1.8 23.0481V21.9519C1.80012 21.8586 1.83723 21.7692 1.9032 21.7032C1.96917 21.6372 2.05861 21.6001 2.1519 21.6H2.7V22.5H3.6V21.6H4.5V22.5H5.4V21.6H6.3V22.5H7.2V21.6H7.7481C7.84139 21.6001 7.93083 21.6372 7.9968 21.7032C8.06277 21.7692 8.09988 21.8586 8.1 21.9519V23.0481ZM0.9 16.5519C0.900119 16.4586 0.937232 16.3692 1.0032 16.3032C1.06917 16.2372 1.15861 16.2001 1.2519 16.2H1.8V17.1H2.7V16.2H3.6V17.1H4.5V16.2H5.4V17.1H6.3V16.2H6.8481C6.94139 16.2001 7.03083 16.2372 7.0968 16.3032C7.16277 16.3692 7.19988 16.4586 7.2 16.5519V17.6481C7.19988 17.7414 7.16277 17.8308 7.0968 17.8968C7.03083 17.9628 6.94139 17.9999 6.8481 18H1.2519C1.15861 17.9999 1.06917 17.9628 1.0032 17.8968C0.937232 17.8308 0.900119 17.7414 0.9 17.6481V16.5519ZM0.9 19.2519C0.900119 19.1586 0.937232 19.0692 1.0032 19.0032C1.06917 18.9372 1.15861 18.9001 1.2519 18.9H1.8V19.8H2.7V18.9H3.6V19.8H4.5V18.9H5.4V19.8H6.3V18.9H6.8481C6.94139 18.9001 7.03083 18.9372 7.0968 19.0032C7.16277 19.0692 7.19988 19.1586 7.2 19.2519V20.3481C7.19988 20.4414 7.16277 20.5308 7.0968 20.5968C7.03083 20.6628 6.94139 20.6999 6.8481 20.7H1.2519C1.15861 20.6999 1.06917 20.6628 1.0032 20.5968C0.937232 20.5308 0.900119 20.4414 0.9 20.3481V19.2519ZM7.2 25.7481C7.19988 25.8414 7.16277 25.9308 7.0968 25.9968C7.03083 26.0628 6.94139 26.0999 6.8481 26.1H1.2519C1.15861 26.0999 1.06917 26.0628 1.0032 25.9968C0.937232 25.9308 0.900119 25.8414 0.9 25.7481V24.6519C0.900119 24.5586 0.937232 24.4692 1.0032 24.4032C1.06917 24.3372 1.15861 24.3001 1.2519 24.3H1.8V25.2H2.7V24.3H3.6V25.2H4.5V24.3H5.4V25.2H6.3V24.3H6.8481C6.94139 24.3001 7.03083 24.3372 7.0968 24.4032C7.16277 24.4692 7.19988 24.5586 7.2 24.6519V25.7481ZM10.35 21.9519C10.3501 21.8586 10.3872 21.7692 10.4532 21.7032C10.5192 21.6372 10.6086 21.6001 10.7019 21.6H11.25V22.5H12.15V21.6H13.05V22.5H13.95V21.6H14.85V22.5H15.75V21.6H16.2981C16.3914 21.6001 16.4808 21.6372 16.5468 21.7032C16.6128 21.7692 16.6499 21.8586 16.65 21.9519V23.0481C16.6499 23.1414 16.6128 23.2308 16.5468 23.2968C16.4808 23.3628 16.3914 23.3999 16.2981 23.4H10.7019C10.6086 23.3999 10.5192 23.3628 10.4532 23.2968C10.3872 23.2308 10.3501 23.1414 10.35 23.0481V21.9519ZM10.7019 26.1C10.6086 26.0999 10.5192 26.0628 10.4532 25.9968C10.3872 25.9308 10.3501 25.8414 10.35 25.7481V24.6519C10.3501 24.5586 10.3872 24.4692 10.4532 24.4032C10.5192 24.3372 10.6086 24.3001 10.7019 24.3H11.25V25.2H12.15V24.3H13.05V25.2H13.95V24.3H14.85V25.2H15.75V24.3H16.2981C16.3914 24.3001 16.4808 24.3372 16.5468 24.4032C16.6128 24.4692 16.6499 24.5586 16.65 24.6519V25.7481C16.6499 25.8414 16.6128 25.9308 16.5468 25.9968C16.4808 26.0628 16.3914 26.0999 16.2981 26.1H10.7019ZM19.8 16.5519C19.8001 16.4586 19.8372 16.3692 19.9032 16.3032C19.9692 16.2372 20.0586 16.2001 20.1519 16.2H20.7V17.1H21.6V16.2H22.5V17.1H23.4V16.2H24.3V17.1H25.2V16.2H25.7481C25.8414 16.2001 25.9308 16.2372 25.9968 16.3032C26.0628 16.3692 26.0999 16.4586 26.1 16.5519V17.6481C26.0999 17.7414 26.0628 17.8308 25.9968 17.8968C25.9308 17.9628 25.8414 17.9999 25.7481 18H20.1519C20.0586 17.9999 19.9692 17.9628 19.9032 17.8968C19.8372 17.8308 19.8001 17.7414 19.8 17.6481V16.5519ZM18.9 21.9519C18.9001 21.8586 18.9372 21.7692 19.0032 21.7032C19.0692 21.6372 19.1586 21.6001 19.2519 21.6H19.8V22.5H20.7V21.6H21.6V22.5H22.5V21.6H23.4V22.5H24.3V21.6H24.8481C24.9414 21.6001 25.0308 21.6372 25.0968 21.7032C25.1628 21.7692 25.1999 21.8586 25.2 21.9519V23.0481C25.1999 23.1414 25.1628 23.2308 25.0968 23.2968C25.0308 23.3628 24.9414 23.3999 24.8481 23.4H19.2519C19.1586 23.3999 19.0692 23.3628 19.0032 23.2968C18.9372 23.2308 18.9001 23.1414 18.9 23.0481V21.9519ZM26.1 25.7481C26.0999 25.8414 26.0628 25.9308 25.9968 25.9968C25.9308 26.0628 25.8414 26.0999 25.7481 26.1H20.1519C20.0586 26.0999 19.9692 26.0628 19.9032 25.9968C19.8372 25.9308 19.8001 25.8414 19.8 25.7481V24.6519C19.8001 24.5586 19.8372 24.4692 19.9032 24.4032C19.9692 24.3372 20.0586 24.3001 20.1519 24.3H20.7V25.2H21.6V24.3H22.5V25.2H23.4V24.3H24.3V25.2H25.2V24.3H25.7481C25.8414 24.3001 25.9308 24.3372 25.9968 24.4032C26.0628 24.4692 26.0999 24.5586 26.1 24.6519V25.7481ZM26.1 20.3481C26.0999 20.4414 26.0628 20.5308 25.9968 20.5968C25.9308 20.6628 25.8414 20.6999 25.7481 20.7H20.1519C20.0586 20.6999 19.9692 20.6628 19.9032 20.5968C19.8372 20.5308 19.8001 20.4414 19.8 20.3481V19.2519C19.8001 19.1586 19.8372 19.0692 19.9032 19.0032C19.9692 18.9372 20.0586 18.9001 20.1519 18.9H20.7V19.8H21.6V18.9H22.5V19.8H23.4V18.9H24.3V19.8H25.2V18.9H25.7481C25.8414 18.9001 25.9308 18.9372 25.9968 19.0032C26.0628 19.0692 26.0999 19.1586 26.1 19.2519V20.3481Z" fill="url(#paint1_linear_2003_2202)"/>
<path d="M15.1335 14.7159V15.0284H12.25V14.7159H15.1335ZM15.1335 15.1449V15.4574H12.25V15.1449H15.1335ZM13.7074 16.0483H12.9801V15.554H13.7074C13.8239 15.554 13.9176 15.5317 13.9886 15.4872C14.0597 15.4418 14.1113 15.3835 14.1435 15.3125C14.1757 15.2405 14.1922 15.1638 14.1932 15.0824C14.1922 14.9991 14.1757 14.92 14.1435 14.8452C14.1113 14.7694 14.0597 14.7083 13.9886 14.6619C13.9176 14.6146 13.8243 14.5909 13.7088 14.5909H13.1889V17H12.581V14.0909H13.7088C13.9418 14.0909 14.1402 14.1349 14.304 14.223C14.4688 14.3111 14.5942 14.4299 14.6804 14.5795C14.7675 14.7282 14.8116 14.8949 14.8125 15.0795C14.8116 15.2614 14.7675 15.4257 14.6804 15.5724C14.5933 15.7183 14.4673 15.8343 14.3026 15.9205C14.1387 16.0057 13.9403 16.0483 13.7074 16.0483Z" fill="#262626" style="mix-blend-mode:color-dodge"/>
<path d="M15.1335 14.7159V15.0284H12.25V14.7159H15.1335ZM15.1335 15.1449V15.4574H12.25V15.1449H15.1335ZM13.7074 16.0483H12.9801V15.554H13.7074C13.8239 15.554 13.9176 15.5317 13.9886 15.4872C14.0597 15.4418 14.1113 15.3835 14.1435 15.3125C14.1757 15.2405 14.1922 15.1638 14.1932 15.0824C14.1922 14.9991 14.1757 14.92 14.1435 14.8452C14.1113 14.7694 14.0597 14.7083 13.9886 14.6619C13.9176 14.6146 13.8243 14.5909 13.7088 14.5909H13.1889V17H12.581V14.0909H13.7088C13.9418 14.0909 14.1402 14.1349 14.304 14.223C14.4688 14.3111 14.5942 14.4299 14.6804 14.5795C14.7675 14.7282 14.8116 14.8949 14.8125 15.0795C14.8116 15.2614 14.7675 15.4257 14.6804 15.5724C14.5933 15.7183 14.4673 15.8343 14.3026 15.9205C14.1387 16.0057 13.9403 16.0483 13.7074 16.0483Z" fill="url(#paint2_linear_2003_2202)"/>
</g>
<defs>
<linearGradient id="paint0_linear_2003_2202" x1="9" y1="15.3" x2="18.0605" y2="12.4724" gradientUnits="userSpaceOnUse">
<stop stop-color="#53CDBE"/>
<stop offset="0.556932" stop-color="#2F9488"/>
<stop offset="1" stop-color="#45EAD6"/>
</linearGradient>
<linearGradient id="paint1_linear_2003_2202" x1="-1.56704e-07" y1="13.5" x2="27.1816" y2="5.01731" gradientUnits="userSpaceOnUse">
<stop stop-color="#53CDBE"/>
<stop offset="0.556932" stop-color="#2F9488"/>
<stop offset="1" stop-color="#45EAD6"/>
</linearGradient>
<linearGradient id="paint2_linear_2003_2202" x1="12" y1="15.5" x2="16.608" y2="14.2058" gradientUnits="userSpaceOnUse">
<stop stop-color="#53CDBE"/>
<stop offset="0.556932" stop-color="#2F9488"/>
<stop offset="1" stop-color="#45EAD6"/>
</linearGradient>
<clipPath id="clip0_2003_2202">
<rect width="27" height="27" fill="white"/>
</clipPath>
</defs>
</svg>
