<svg xmlns="http://www.w3.org/2000/svg" xmlns:xlink="http://www.w3.org/1999/xlink" width="196" zoomAndPan="magnify" viewBox="0 0 147 147.000002" height="196" preserveAspectRatio="xMidYMid meet" version="1.0"><defs><clipPath id="62fecd3045"><path d="M 0.496094 2.5 L 146.503906 2.5 L 146.503906 143 L 0.496094 143 Z M 0.496094 2.5 " clip-rule="nonzero"/></clipPath><clipPath id="4b1a6a6ef2"><path d="M 24 112 L 58 112 L 58 143.292969 L 24 143.292969 Z M 24 112 " clip-rule="nonzero"/></clipPath></defs><path fill="#ffffff" d="M 99.988281 55.21875 C 99.476562 54.707031 98.953125 54.210938 98.414062 53.730469 C 97.875 53.25 97.324219 52.785156 96.757812 52.335938 C 96.191406 51.886719 95.613281 51.457031 95.023438 51.039062 C 94.433594 50.625 93.832031 50.226562 93.21875 49.84375 C 92.605469 49.464844 91.980469 49.101562 91.347656 48.753906 C 90.714844 48.410156 90.070312 48.082031 89.417969 47.773438 C 88.765625 47.464844 88.105469 47.175781 87.433594 46.902344 C 86.765625 46.632812 86.089844 46.382812 85.40625 46.148438 C 84.722656 45.917969 84.03125 45.703125 83.335938 45.511719 C 82.640625 45.320312 81.941406 45.148438 81.234375 44.996094 C 80.527344 44.84375 79.820312 44.710938 79.105469 44.597656 C 78.390625 44.484375 77.675781 44.394531 76.957031 44.324219 C 76.238281 44.253906 75.519531 44.203125 74.796875 44.171875 C 74.078125 44.144531 73.355469 44.136719 72.632812 44.148438 C 71.910156 44.160156 71.191406 44.191406 70.46875 44.246094 C 69.75 44.296875 69.03125 44.371094 68.316406 44.464844 C 67.601562 44.558594 66.886719 44.675781 66.179688 44.808594 C 65.46875 44.945312 64.765625 45.097656 64.0625 45.273438 C 63.363281 45.449219 62.667969 45.644531 61.980469 45.859375 C 61.289062 46.074219 60.609375 46.3125 59.933594 46.566406 C 59.257812 46.820312 58.589844 47.09375 57.929688 47.386719 C 57.269531 47.679688 56.617188 47.988281 55.976562 48.320312 C 55.332031 48.648438 54.699219 48.996094 54.078125 49.363281 C 53.457031 49.730469 52.84375 50.113281 52.246094 50.515625 C 51.644531 50.914062 51.054688 51.332031 50.480469 51.769531 C 49.902344 52.203125 49.339844 52.652344 48.789062 53.121094 C 48.238281 53.585938 47.703125 54.070312 47.179688 54.566406 C 46.65625 55.066406 46.148438 55.578125 45.652344 56.105469 C 45.160156 56.632812 44.683594 57.171875 44.21875 57.726562 C 43.757812 58.28125 43.308594 58.847656 42.878906 59.429688 C 42.449219 60.007812 42.035156 60.601562 41.640625 61.203125 C 41.246094 61.808594 40.867188 62.421875 40.503906 63.046875 C 40.144531 63.671875 39.800781 64.308594 39.476562 64.953125 C 39.152344 65.597656 38.847656 66.25 38.558594 66.914062 C 38.273438 67.574219 38.003906 68.246094 37.753906 68.921875 C 37.507812 69.601562 37.277344 70.285156 37.066406 70.976562 C 36.859375 71.667969 36.667969 72.363281 36.5 73.066406 C 36.328125 73.765625 36.179688 74.472656 36.050781 75.183594 C 35.921875 75.894531 35.8125 76.609375 35.722656 77.324219 C 35.632812 78.039062 35.566406 78.757812 35.519531 79.480469 C 35.472656 80.199219 35.445312 80.921875 35.441406 81.644531 C 35.433594 82.367188 35.449219 83.085938 35.484375 83.808594 C 35.519531 84.527344 35.574219 85.25 35.652344 85.964844 C 35.730469 86.683594 35.824219 87.398438 35.945312 88.113281 C 36.0625 88.824219 36.199219 89.53125 36.355469 90.238281 C 36.515625 90.941406 36.695312 91.640625 36.890625 92.335938 C 37.089844 93.03125 37.308594 93.71875 37.546875 94.398438 C 37.78125 95.082031 38.039062 95.753906 38.316406 96.421875 C 38.59375 97.089844 38.886719 97.75 39.203125 98.398438 C 39.515625 99.046875 39.847656 99.6875 40.199219 100.320312 C 40.550781 100.953125 40.917969 101.570312 41.304688 102.183594 C 41.691406 102.792969 42.09375 103.390625 42.515625 103.976562 C 42.933594 104.566406 43.371094 105.140625 43.824219 105.699219 C 44.277344 106.261719 44.75 106.8125 45.234375 107.347656 C 45.71875 107.882812 46.21875 108.402344 46.730469 108.90625 C 47.246094 109.414062 47.777344 109.90625 48.320312 110.382812 C 48.863281 110.859375 49.417969 111.316406 49.988281 111.761719 C 50.554688 112.207031 51.136719 112.632812 51.730469 113.042969 C 52.324219 113.457031 52.929688 113.847656 53.546875 114.226562 C 54.160156 114.601562 54.789062 114.960938 55.425781 115.300781 C 56.0625 115.640625 56.707031 115.960938 57.363281 116.265625 C 58.019531 116.570312 58.679688 116.855469 59.351562 117.121094 C 60.023438 117.382812 60.703125 117.628906 61.386719 117.855469 C 62.074219 118.082031 62.765625 118.289062 63.464844 118.476562 C 64.160156 118.664062 64.863281 118.832031 65.570312 118.976562 C 66.277344 119.125 66.988281 119.25 67.703125 119.355469 C 68.414062 119.460938 69.132812 119.546875 69.851562 119.613281 C 70.570312 119.675781 71.289062 119.722656 72.011719 119.746094 C 72.734375 119.769531 73.457031 119.773438 74.175781 119.753906 C 74.898438 119.738281 75.621094 119.699219 76.339844 119.640625 C 77.058594 119.582031 77.777344 119.5 78.492188 119.402344 C 79.207031 119.300781 79.917969 119.179688 80.625 119.039062 C 81.335938 118.898438 82.039062 118.738281 82.738281 118.554688 C 83.4375 118.375 84.128906 118.175781 84.816406 117.953125 C 85.503906 117.734375 86.183594 117.492188 86.859375 117.234375 C 87.53125 116.972656 88.195312 116.695312 88.855469 116.394531 C 89.511719 116.097656 90.160156 115.78125 90.800781 115.445312 C 91.441406 115.109375 92.070312 114.757812 92.6875 114.386719 C 93.308594 114.015625 93.917969 113.628906 94.511719 113.222656 C 95.109375 112.816406 95.695312 112.390625 96.269531 111.953125 C 96.839844 111.511719 97.402344 111.058594 97.949219 110.585938 C 98.492188 110.113281 99.027344 109.628906 99.546875 109.125 C 100.066406 108.625 100.570312 108.105469 101.058594 107.574219 C 101.546875 107.046875 102.019531 106.5 102.480469 105.941406 C 102.9375 105.382812 103.378906 104.8125 103.804688 104.230469 C 104.230469 103.648438 104.636719 103.050781 105.027344 102.445312 C 105.421875 101.839844 105.792969 101.21875 106.148438 100.59375 C 106.503906 99.964844 106.84375 99.328125 107.164062 98.679688 C 107.480469 98.03125 107.78125 97.375 108.0625 96.710938 C 108.347656 96.046875 108.609375 95.375 108.851562 94.695312 C 109.09375 94.015625 109.320312 93.328125 109.523438 92.636719 C 109.726562 91.941406 109.910156 91.246094 110.074219 90.542969 C 110.238281 89.839844 110.382812 89.132812 110.503906 88.417969 C 110.628906 87.707031 110.730469 86.992188 110.816406 86.277344 C 110.898438 85.558594 110.960938 84.839844 111 84.121094 C 111.042969 83.398438 111.0625 82.675781 111.0625 81.957031 C 111.066406 79.472656 110.828125 77.011719 110.347656 74.574219 C 109.863281 72.140625 109.148438 69.773438 108.199219 67.480469 C 107.25 65.183594 106.082031 63.003906 104.699219 60.941406 C 103.320312 58.878906 101.746094 56.96875 99.988281 55.21875 Z M 96.226562 104.933594 C 95.789062 105.371094 95.335938 105.796875 94.875 106.207031 C 94.410156 106.621094 93.9375 107.019531 93.449219 107.40625 C 92.964844 107.789062 92.464844 108.160156 91.960938 108.519531 C 91.453125 108.875 90.933594 109.21875 90.40625 109.542969 C 89.878906 109.871094 89.34375 110.183594 88.800781 110.480469 C 88.253906 110.777344 87.703125 111.058594 87.140625 111.324219 C 86.582031 111.585938 86.011719 111.835938 85.4375 112.066406 C 84.863281 112.300781 84.28125 112.515625 83.691406 112.714844 C 83.105469 112.914062 82.511719 113.097656 81.914062 113.261719 C 81.316406 113.425781 80.714844 113.574219 80.109375 113.703125 C 79.5 113.835938 78.890625 113.949219 78.277344 114.042969 C 77.667969 114.140625 77.050781 114.21875 76.433594 114.277344 C 75.816406 114.339844 75.199219 114.382812 74.578125 114.40625 C 73.957031 114.429688 73.335938 114.4375 72.71875 114.429688 C 72.097656 114.417969 71.476562 114.390625 70.859375 114.34375 C 70.242188 114.296875 69.625 114.234375 69.007812 114.152344 C 68.394531 114.070312 67.78125 113.972656 67.171875 113.855469 C 66.5625 113.738281 65.957031 113.605469 65.355469 113.453125 C 64.753906 113.300781 64.15625 113.132812 63.566406 112.949219 C 62.972656 112.765625 62.386719 112.5625 61.808594 112.34375 C 61.226562 112.125 60.652344 111.886719 60.085938 111.636719 C 59.519531 111.386719 58.960938 111.117188 58.40625 110.832031 C 57.855469 110.550781 57.3125 110.25 56.777344 109.933594 C 56.246094 109.621094 55.71875 109.289062 55.203125 108.945312 C 54.6875 108.601562 54.183594 108.242188 53.6875 107.867188 C 53.191406 107.492188 52.710938 107.105469 52.238281 106.703125 C 51.765625 106.300781 51.304688 105.886719 50.855469 105.457031 C 50.40625 105.03125 49.96875 104.589844 49.542969 104.136719 C 49.121094 103.683594 48.710938 103.21875 48.3125 102.742188 C 47.917969 102.265625 47.535156 101.777344 47.164062 101.28125 C 46.796875 100.78125 46.441406 100.273438 46.101562 99.753906 C 45.761719 99.234375 45.4375 98.707031 45.125 98.167969 C 44.816406 97.632812 44.523438 97.085938 44.242188 96.53125 C 43.964844 95.976562 43.703125 95.414062 43.457031 94.847656 C 43.210938 94.277344 42.980469 93.699219 42.765625 93.117188 C 42.554688 92.535156 42.355469 91.949219 42.175781 91.355469 C 41.996094 90.761719 41.835938 90.160156 41.691406 89.558594 C 41.542969 88.957031 41.417969 88.347656 41.304688 87.738281 C 41.195312 87.128906 41.101562 86.515625 41.027344 85.898438 C 40.953125 85.28125 40.894531 84.664062 40.855469 84.046875 C 40.8125 83.425781 40.792969 82.808594 40.785156 82.1875 C 40.78125 81.566406 40.796875 80.949219 40.828125 80.328125 C 40.859375 79.707031 40.90625 79.089844 40.972656 78.472656 C 41.039062 77.855469 41.121094 77.242188 41.222656 76.628906 C 41.324219 76.019531 41.445312 75.410156 41.582031 74.804688 C 41.71875 74.199219 41.871094 73.597656 42.042969 73.003906 C 42.214844 72.40625 42.402344 71.816406 42.605469 71.230469 C 42.808594 70.644531 43.03125 70.0625 43.269531 69.492188 C 43.507812 68.917969 43.761719 68.351562 44.03125 67.792969 C 44.300781 67.234375 44.589844 66.6875 44.890625 66.144531 C 45.191406 65.601562 45.507812 65.070312 45.839844 64.546875 C 46.171875 64.023438 46.519531 63.507812 46.882812 63.003906 C 47.246094 62.5 47.621094 62.007812 48.011719 61.523438 C 48.398438 61.042969 48.804688 60.570312 49.21875 60.113281 C 49.636719 59.652344 50.066406 59.207031 50.511719 58.769531 C 50.953125 58.335938 51.40625 57.914062 51.875 57.507812 C 52.339844 57.097656 52.820312 56.703125 53.308594 56.320312 C 53.796875 55.941406 54.296875 55.574219 54.808594 55.21875 C 55.320312 54.867188 55.839844 54.53125 56.367188 54.207031 C 56.898438 53.886719 57.4375 53.578125 57.984375 53.285156 C 58.53125 52.992188 59.085938 52.71875 59.648438 52.457031 C 60.214844 52.199219 60.78125 51.953125 61.359375 51.726562 C 61.9375 51.5 62.519531 51.289062 63.109375 51.09375 C 63.699219 50.898438 64.292969 50.722656 64.894531 50.5625 C 65.492188 50.402344 66.09375 50.261719 66.703125 50.136719 C 67.3125 50.007812 67.921875 49.902344 68.535156 49.8125 C 69.148438 49.71875 69.765625 49.648438 70.382812 49.59375 C 71 49.539062 71.621094 49.5 72.238281 49.480469 C 72.859375 49.460938 73.480469 49.457031 74.097656 49.472656 C 74.71875 49.492188 75.339844 49.523438 75.957031 49.574219 C 76.574219 49.625 77.191406 49.695312 77.804688 49.78125 C 78.421875 49.867188 79.03125 49.972656 79.640625 50.09375 C 80.246094 50.214844 80.851562 50.355469 81.453125 50.511719 C 82.054688 50.667969 82.648438 50.839844 83.238281 51.03125 C 83.828125 51.222656 84.414062 51.429688 84.992188 51.652344 C 85.570312 51.875 86.140625 52.117188 86.707031 52.375 C 87.273438 52.628906 87.828125 52.902344 88.378906 53.191406 C 88.925781 53.480469 89.46875 53.785156 90 54.101562 C 90.53125 54.421875 91.054688 54.757812 91.566406 55.105469 C 92.078125 55.457031 92.582031 55.820312 93.074219 56.199219 C 93.5625 56.574219 94.042969 56.96875 94.515625 57.375 C 94.984375 57.777344 95.441406 58.199219 95.886719 58.628906 C 96.332031 59.0625 96.765625 59.503906 97.183594 59.960938 C 97.605469 60.417969 98.011719 60.886719 98.402344 61.367188 C 98.796875 61.847656 99.175781 62.339844 99.539062 62.839844 C 99.90625 63.339844 100.253906 63.851562 100.589844 64.375 C 100.925781 64.894531 101.246094 65.425781 101.550781 65.96875 C 101.855469 66.507812 102.148438 67.054688 102.421875 67.613281 C 102.695312 68.167969 102.953125 68.734375 103.191406 69.304688 C 103.433594 69.875 103.660156 70.453125 103.867188 71.039062 C 104.078125 71.621094 104.269531 72.210938 104.441406 72.808594 C 104.617188 73.402344 104.773438 74.003906 104.914062 74.605469 C 105.054688 75.210938 105.175781 75.820312 105.28125 76.429688 C 105.386719 77.042969 105.476562 77.65625 105.546875 78.273438 C 105.617188 78.886719 105.667969 79.507812 105.703125 80.125 C 105.738281 80.746094 105.753906 81.363281 105.753906 81.984375 C 105.757812 84.117188 105.550781 86.230469 105.132812 88.320312 C 104.71875 90.410156 104.101562 92.441406 103.28125 94.410156 C 102.464844 96.378906 101.460938 98.25 100.273438 100.019531 C 99.085938 101.789062 97.738281 103.429688 96.226562 104.933594 Z M 96.226562 104.933594 " fill-opacity="1" fill-rule="nonzero"/><g clip-path="url(#62fecd3045)"><path fill="#ffffff" d="M 144.074219 60.433594 L 78.835938 4.316406 C 78.492188 4.027344 78.128906 3.769531 77.738281 3.546875 C 77.351562 3.320312 76.945312 3.132812 76.523438 2.976562 C 76.101562 2.824219 75.667969 2.707031 75.226562 2.628906 C 74.785156 2.550781 74.339844 2.511719 73.890625 2.511719 C 73.441406 2.511719 72.996094 2.550781 72.550781 2.628906 C 72.109375 2.707031 71.675781 2.824219 71.253906 2.976562 C 70.832031 3.132812 70.429688 3.320312 70.039062 3.546875 C 69.652344 3.769531 69.285156 4.027344 68.941406 4.316406 L 2.953125 60.367188 C -2.035156 64.605469 1.160156 72.417969 7.894531 72.417969 L 19.566406 72.417969 C 17.640625 77.816406 16.683594 83.378906 16.691406 89.109375 C 16.695312 94.246094 17.464844 99.265625 19.003906 104.167969 C 20.546875 109.066406 22.785156 113.625 25.722656 117.839844 C 26.800781 119.417969 27.964844 120.925781 29.214844 122.371094 L 35.03125 117.304688 L 46.941406 106.898438 L 48.25 105.808594 L 44.257812 102.097656 L 31.609375 112.742188 C 29.324219 109.234375 27.585938 105.46875 26.398438 101.453125 C 25.210938 97.4375 24.617188 93.335938 24.625 89.148438 C 24.632812 84.917969 25.246094 80.78125 26.460938 76.730469 C 27.675781 72.679688 29.445312 68.886719 31.765625 65.355469 L 11.496094 65.355469 C 11.085938 65.378906 10.707031 65.285156 10.359375 65.070312 C 10.007812 64.851562 9.757812 64.554688 9.601562 64.175781 C 9.441406 63.796875 9.410156 63.40625 9.503906 63.007812 C 9.597656 62.605469 9.800781 62.273438 10.109375 62 L 69.96875 11.121094 C 70.519531 10.65625 71.136719 10.300781 71.816406 10.054688 C 72.492188 9.808594 73.191406 9.6875 73.914062 9.6875 C 74.636719 9.6875 75.335938 9.808594 76.011719 10.054688 C 76.691406 10.300781 77.308594 10.65625 77.859375 11.121094 L 136.953125 62 C 137.257812 62.269531 137.457031 62.601562 137.550781 63 C 137.640625 63.398438 137.609375 63.785156 137.453125 64.160156 C 137.296875 64.535156 137.046875 64.832031 136.703125 65.046875 C 136.359375 65.261719 135.980469 65.359375 135.574219 65.332031 L 114.085938 65.332031 C 116.414062 68.875 118.1875 72.675781 119.410156 76.734375 C 120.632812 80.792969 121.25 84.941406 121.269531 89.179688 C 121.257812 92.199219 120.9375 95.1875 120.308594 98.140625 C 119.679688 101.097656 118.753906 103.957031 117.535156 106.71875 C 116.316406 109.484375 114.828125 112.09375 113.070312 114.550781 C 111.3125 117.007812 109.324219 119.257812 107.101562 121.304688 C 104.800781 123.441406 102.320312 125.339844 99.660156 127.007812 C 97 128.675781 94.207031 130.078125 91.28125 131.214844 C 88.355469 132.351562 85.347656 133.203125 82.261719 133.773438 C 79.175781 134.339844 76.0625 134.613281 72.921875 134.59375 C 69.484375 134.601562 66.078125 134.269531 62.707031 133.59375 C 62.441406 133.53125 62.175781 133.496094 61.90625 133.492188 C 61.636719 133.484375 61.371094 133.503906 61.105469 133.550781 C 60.839844 133.597656 60.582031 133.675781 60.332031 133.777344 C 60.085938 133.878906 59.847656 134.003906 59.625 134.152344 C 59.402344 134.304688 59.195312 134.476562 59.007812 134.667969 C 58.820312 134.863281 58.652344 135.070312 58.507812 135.300781 C 58.363281 135.527344 58.246094 135.765625 58.148438 136.019531 C 58.054688 136.273438 57.988281 136.53125 57.945312 136.796875 L 57.945312 136.878906 C 57.902344 137.34375 57.945312 137.800781 58.078125 138.246094 C 58.207031 138.695312 58.414062 139.105469 58.699219 139.476562 C 58.984375 139.847656 59.328125 140.152344 59.726562 140.390625 C 60.128906 140.632812 60.558594 140.789062 61.019531 140.867188 C 63.292969 141.339844 65.585938 141.675781 67.898438 141.878906 C 70.210938 142.078125 72.527344 142.140625 74.847656 142.066406 C 77.167969 141.988281 79.476562 141.777344 81.773438 141.429688 C 84.070312 141.082031 86.335938 140.597656 88.574219 139.980469 C 90.8125 139.359375 93.003906 138.613281 95.152344 137.734375 C 97.304688 136.855469 99.394531 135.851562 101.421875 134.726562 C 103.453125 133.597656 105.410156 132.355469 107.292969 130.996094 C 109.175781 129.640625 110.96875 128.171875 112.679688 126.601562 C 115.265625 124.222656 117.578125 121.601562 119.625 118.742188 C 121.667969 115.886719 123.398438 112.847656 124.816406 109.632812 C 126.234375 106.417969 127.308594 103.09375 128.042969 99.65625 C 128.773438 96.21875 129.144531 92.742188 129.160156 89.226562 C 129.167969 83.496094 128.207031 77.933594 126.277344 72.535156 L 139.097656 72.535156 C 145.8125 72.457031 149.023438 64.707031 144.074219 60.433594 Z M 144.074219 60.433594 " fill-opacity="1" fill-rule="nonzero"/></g><path fill="#ffffff" d="M 61.539062 65.195312 L 65.378906 65.195312 C 65.699219 65.195312 66.015625 65.226562 66.328125 65.289062 C 66.640625 65.351562 66.945312 65.441406 67.242188 65.566406 C 67.539062 65.6875 67.816406 65.835938 68.082031 66.015625 C 68.347656 66.191406 68.59375 66.394531 68.820312 66.621094 C 69.046875 66.847656 69.25 67.09375 69.425781 67.359375 C 69.605469 67.625 69.753906 67.90625 69.875 68.199219 C 70 68.496094 70.089844 68.800781 70.152344 69.113281 C 70.214844 69.425781 70.246094 69.742188 70.246094 70.0625 L 70.246094 73.902344 C 70.246094 74.222656 70.214844 74.539062 70.152344 74.855469 C 70.089844 75.167969 70 75.472656 69.875 75.765625 C 69.753906 76.0625 69.605469 76.34375 69.425781 76.609375 C 69.25 76.875 69.046875 77.121094 68.820312 77.347656 C 68.59375 77.574219 68.347656 77.773438 68.082031 77.953125 C 67.816406 78.128906 67.539062 78.28125 67.242188 78.402344 C 66.945312 78.523438 66.640625 78.617188 66.328125 78.679688 C 66.015625 78.742188 65.699219 78.773438 65.378906 78.773438 L 61.539062 78.773438 C 61.21875 78.773438 60.902344 78.742188 60.589844 78.679688 C 60.273438 78.617188 59.96875 78.523438 59.675781 78.402344 C 59.378906 78.28125 59.097656 78.128906 58.832031 77.953125 C 58.566406 77.773438 58.320312 77.574219 58.09375 77.347656 C 57.867188 77.121094 57.667969 76.875 57.488281 76.609375 C 57.3125 76.34375 57.164062 76.0625 57.039062 75.765625 C 56.917969 75.472656 56.824219 75.167969 56.761719 74.855469 C 56.699219 74.539062 56.667969 74.222656 56.667969 73.902344 L 56.667969 70.0625 C 56.667969 69.742188 56.699219 69.425781 56.761719 69.113281 C 56.824219 68.800781 56.917969 68.496094 57.039062 68.199219 C 57.164062 67.90625 57.3125 67.625 57.488281 67.359375 C 57.667969 67.09375 57.867188 66.847656 58.09375 66.621094 C 58.320312 66.394531 58.566406 66.191406 58.832031 66.015625 C 59.097656 65.835938 59.378906 65.6875 59.675781 65.566406 C 59.96875 65.441406 60.273438 65.351562 60.589844 65.289062 C 60.902344 65.226562 61.21875 65.195312 61.539062 65.195312 Z M 61.539062 65.195312 " fill-opacity="1" fill-rule="nonzero"/><path fill="#ffffff" d="M 81.121094 65.195312 L 84.964844 65.195312 C 85.28125 65.195312 85.597656 65.226562 85.914062 65.289062 C 86.226562 65.351562 86.53125 65.441406 86.828125 65.566406 C 87.121094 65.6875 87.402344 65.835938 87.667969 66.015625 C 87.933594 66.191406 88.179688 66.394531 88.40625 66.621094 C 88.632812 66.847656 88.832031 67.09375 89.011719 67.359375 C 89.1875 67.625 89.339844 67.90625 89.460938 68.199219 C 89.582031 68.496094 89.675781 68.800781 89.738281 69.113281 C 89.800781 69.425781 89.832031 69.742188 89.832031 70.0625 L 89.832031 73.902344 C 89.832031 74.222656 89.800781 74.539062 89.738281 74.855469 C 89.675781 75.167969 89.582031 75.472656 89.460938 75.765625 C 89.339844 76.0625 89.1875 76.34375 89.011719 76.609375 C 88.832031 76.875 88.632812 77.121094 88.40625 77.347656 C 88.179688 77.574219 87.933594 77.773438 87.667969 77.953125 C 87.402344 78.128906 87.121094 78.28125 86.828125 78.402344 C 86.53125 78.523438 86.226562 78.617188 85.914062 78.679688 C 85.597656 78.742188 85.28125 78.773438 84.964844 78.773438 L 81.121094 78.773438 C 80.800781 78.773438 80.484375 78.742188 80.171875 78.679688 C 79.859375 78.617188 79.554688 78.523438 79.257812 78.402344 C 78.964844 78.28125 78.683594 78.128906 78.417969 77.953125 C 78.152344 77.773438 77.90625 77.574219 77.679688 77.347656 C 77.453125 77.121094 77.25 76.875 77.074219 76.609375 C 76.898438 76.34375 76.746094 76.0625 76.625 75.765625 C 76.5 75.472656 76.410156 75.167969 76.347656 74.855469 C 76.285156 74.539062 76.253906 74.222656 76.253906 73.902344 L 76.253906 70.0625 C 76.253906 69.742188 76.285156 69.425781 76.347656 69.113281 C 76.410156 68.800781 76.5 68.496094 76.625 68.199219 C 76.746094 67.90625 76.898438 67.625 77.074219 67.359375 C 77.25 67.09375 77.453125 66.847656 77.679688 66.621094 C 77.90625 66.394531 78.152344 66.191406 78.417969 66.015625 C 78.683594 65.835938 78.964844 65.6875 79.257812 65.566406 C 79.554688 65.441406 79.859375 65.351562 80.171875 65.289062 C 80.484375 65.226562 80.800781 65.195312 81.121094 65.195312 Z M 81.121094 65.195312 " fill-opacity="1" fill-rule="nonzero"/><path fill="#ffffff" d="M 61.539062 85.136719 L 65.378906 85.136719 C 65.699219 85.136719 66.015625 85.167969 66.328125 85.230469 C 66.640625 85.292969 66.945312 85.386719 67.242188 85.507812 C 67.539062 85.628906 67.816406 85.78125 68.082031 85.957031 C 68.347656 86.136719 68.59375 86.335938 68.820312 86.5625 C 69.046875 86.789062 69.25 87.035156 69.425781 87.300781 C 69.605469 87.566406 69.753906 87.847656 69.875 88.144531 C 70 88.4375 70.089844 88.742188 70.152344 89.054688 C 70.214844 89.371094 70.246094 89.6875 70.246094 90.007812 L 70.246094 93.847656 C 70.246094 94.167969 70.214844 94.484375 70.152344 94.796875 C 70.089844 95.109375 70 95.414062 69.875 95.710938 C 69.753906 96.007812 69.605469 96.285156 69.425781 96.550781 C 69.25 96.816406 69.046875 97.0625 68.820312 97.289062 C 68.59375 97.515625 68.347656 97.71875 68.082031 97.894531 C 67.816406 98.074219 67.539062 98.222656 67.242188 98.34375 C 66.945312 98.46875 66.640625 98.558594 66.328125 98.621094 C 66.015625 98.683594 65.699219 98.714844 65.378906 98.714844 L 61.539062 98.714844 C 61.21875 98.714844 60.902344 98.683594 60.589844 98.621094 C 60.273438 98.558594 59.96875 98.46875 59.675781 98.34375 C 59.378906 98.222656 59.097656 98.074219 58.832031 97.894531 C 58.566406 97.71875 58.320312 97.515625 58.09375 97.289062 C 57.867188 97.0625 57.667969 96.816406 57.488281 96.550781 C 57.3125 96.285156 57.164062 96.007812 57.039062 95.710938 C 56.917969 95.414062 56.824219 95.109375 56.761719 94.796875 C 56.699219 94.484375 56.667969 94.167969 56.667969 93.847656 L 56.667969 90.007812 C 56.667969 89.6875 56.699219 89.371094 56.761719 89.054688 C 56.824219 88.742188 56.917969 88.4375 57.039062 88.144531 C 57.164062 87.847656 57.3125 87.566406 57.488281 87.300781 C 57.667969 87.035156 57.867188 86.789062 58.09375 86.5625 C 58.320312 86.335938 58.566406 86.136719 58.832031 85.957031 C 59.097656 85.78125 59.378906 85.628906 59.675781 85.507812 C 59.96875 85.386719 60.273438 85.292969 60.589844 85.230469 C 60.902344 85.167969 61.21875 85.136719 61.539062 85.136719 Z M 61.539062 85.136719 " fill-opacity="1" fill-rule="nonzero"/><path fill="#ffffff" d="M 81.121094 85.136719 L 84.964844 85.136719 C 85.28125 85.136719 85.597656 85.167969 85.914062 85.230469 C 86.226562 85.292969 86.53125 85.386719 86.828125 85.507812 C 87.121094 85.628906 87.402344 85.78125 87.667969 85.957031 C 87.933594 86.136719 88.179688 86.335938 88.40625 86.5625 C 88.632812 86.789062 88.832031 87.035156 89.011719 87.300781 C 89.1875 87.566406 89.339844 87.847656 89.460938 88.144531 C 89.582031 88.4375 89.675781 88.742188 89.738281 89.054688 C 89.800781 89.371094 89.832031 89.6875 89.832031 90.007812 L 89.832031 93.847656 C 89.832031 94.167969 89.800781 94.484375 89.738281 94.796875 C 89.675781 95.109375 89.582031 95.414062 89.460938 95.710938 C 89.339844 96.007812 89.1875 96.285156 89.011719 96.550781 C 88.832031 96.816406 88.632812 97.0625 88.40625 97.289062 C 88.179688 97.515625 87.933594 97.71875 87.667969 97.894531 C 87.402344 98.074219 87.121094 98.222656 86.828125 98.34375 C 86.53125 98.46875 86.226562 98.558594 85.914062 98.621094 C 85.597656 98.683594 85.28125 98.714844 84.964844 98.714844 L 81.121094 98.714844 C 80.800781 98.714844 80.484375 98.683594 80.171875 98.621094 C 79.859375 98.558594 79.554688 98.46875 79.257812 98.34375 C 78.964844 98.222656 78.683594 98.074219 78.417969 97.894531 C 78.152344 97.71875 77.90625 97.515625 77.679688 97.289062 C 77.453125 97.0625 77.25 96.816406 77.074219 96.550781 C 76.898438 96.285156 76.746094 96.007812 76.625 95.710938 C 76.5 95.414062 76.410156 95.109375 76.347656 94.796875 C 76.285156 94.484375 76.253906 94.167969 76.253906 93.847656 L 76.253906 90.007812 C 76.253906 89.6875 76.285156 89.371094 76.347656 89.054688 C 76.410156 88.742188 76.5 88.4375 76.625 88.144531 C 76.746094 87.847656 76.898438 87.566406 77.074219 87.300781 C 77.25 87.035156 77.453125 86.789062 77.679688 86.5625 C 77.90625 86.335938 78.152344 86.136719 78.417969 85.957031 C 78.683594 85.78125 78.964844 85.628906 79.257812 85.507812 C 79.554688 85.386719 79.859375 85.292969 80.171875 85.230469 C 80.484375 85.167969 80.800781 85.136719 81.121094 85.136719 Z M 81.121094 85.136719 " fill-opacity="1" fill-rule="nonzero"/><g clip-path="url(#4b1a6a6ef2)"><path fill="#ffffff" d="M 48.617188 124.078125 L 56.597656 116.464844 C 56.832031 116.238281 57.007812 115.976562 57.136719 115.679688 C 57.261719 115.382812 57.324219 115.070312 57.324219 114.75 C 57.324219 114.425781 57.261719 114.113281 57.136719 113.816406 C 57.007812 113.519531 56.832031 113.257812 56.597656 113.03125 C 56.363281 112.804688 56.09375 112.628906 55.789062 112.507812 C 55.488281 112.382812 55.171875 112.320312 54.84375 112.320312 C 54.515625 112.320312 54.199219 112.382812 53.894531 112.507812 C 53.59375 112.628906 53.324219 112.804688 53.085938 113.03125 L 44.847656 120.875 L 40.046875 125.433594 L 25.460938 139.292969 C 25.332031 139.414062 25.214844 139.554688 25.117188 139.703125 C 25.015625 139.851562 24.933594 140.011719 24.871094 140.179688 C 24.804688 140.351562 24.761719 140.523438 24.738281 140.703125 C 24.710938 140.878906 24.707031 141.058594 24.722656 141.238281 C 24.738281 141.417969 24.773438 141.59375 24.828125 141.765625 C 24.882812 141.9375 24.957031 142.101562 25.046875 142.257812 C 25.140625 142.410156 25.246094 142.554688 25.371094 142.6875 C 25.496094 142.816406 25.632812 142.933594 25.78125 143.03125 C 26.019531 143.195312 26.28125 143.308594 26.558594 143.382812 C 26.835938 143.457031 27.121094 143.480469 27.40625 143.457031 C 27.695312 143.433594 27.96875 143.363281 28.234375 143.246094 C 28.496094 143.128906 28.734375 142.972656 28.945312 142.773438 L 43.800781 128.625 Z M 48.617188 124.078125 " fill-opacity="1" fill-rule="nonzero"/></g></svg>