<svg width="11" height="13" viewBox="0 0 11 13" fill="none" xmlns="http://www.w3.org/2000/svg">
<g clip-path="url(#clip0_2004_2234)">
<path d="M0.772349 0.889883L5.21052 2.6591V12.2614L0.800573 10.3097C0.713115 10.2736 0.638314 10.2115 0.585886 10.1314C0.533458 10.0514 0.505825 9.95709 0.506576 9.86081V1.21876C0.506576 1.09143 0.556136 0.969308 0.644352 0.87927C0.732568 0.789231 0.852214 0.738647 0.976971 0.738647H7.3273C7.45206 0.738647 7.5717 0.789231 7.65992 0.87927C7.74814 0.969308 7.79769 1.09143 7.79769 1.21876V9.86081C7.79769 9.98814 7.74814 10.1103 7.65992 10.2003C7.5717 10.2903 7.45206 10.3409 7.3273 10.3409H5.21052" stroke="#EB4343" stroke-linecap="round" stroke-linejoin="round"/>
<path d="M4.24857 7.2346L3.35953 6.86011" stroke="#EB4343" stroke-linecap="round" stroke-linejoin="round"/>
<path d="M9.44409 6.55759L10.4413 5.53975L9.44409 4.52191" stroke="#EB4343" stroke-linecap="round" stroke-linejoin="round"/>
<path d="M10.3849 5.53979H7.7977" stroke="#EB4343" stroke-linecap="round" stroke-linejoin="round"/>
</g>
<defs>
<clipPath id="clip0_2004_2234">
<rect width="11" height="13" fill="white"/>
</clipPath>
</defs>
</svg>
