<svg xmlns="http://www.w3.org/2000/svg" xmlns:xlink="http://www.w3.org/1999/xlink" width="1920" zoomAndPan="magnify" viewBox="0 0 1440 272.999983" height="364" preserveAspectRatio="xMidYMid meet" version="1.0"><defs><clipPath id="b7af2f120d"><path d="M 46 212 L 110 212 L 110 272.359375 L 46 272.359375 Z M 46 212 " clip-rule="nonzero"/></clipPath><clipPath id="127e577b12"><path d="M 329.109375 94 L 418 94 L 418 226.585938 L 329.109375 226.585938 Z M 329.109375 94 " clip-rule="nonzero"/></clipPath><clipPath id="565b67e541"><path d="M 423 94 L 547 94 L 547 226.585938 L 423 226.585938 Z M 423 94 " clip-rule="nonzero"/></clipPath><clipPath id="3e34e7107a"><path d="M 572 94 L 688 94 L 688 226.585938 L 572 226.585938 Z M 572 94 " clip-rule="nonzero"/></clipPath><clipPath id="8a0f0e0d4b"><path d="M 706 50 L 795 50 L 795 226.585938 L 706 226.585938 Z M 706 50 " clip-rule="nonzero"/></clipPath><clipPath id="4c2d8c93f5"><path d="M 957 46.613281 L 1119 46.613281 L 1119 226.585938 L 957 226.585938 Z M 957 46.613281 " clip-rule="nonzero"/></clipPath><clipPath id="53cb3a6c55"><path d="M 1138 46.613281 L 1277 46.613281 L 1277 226.585938 L 1138 226.585938 Z M 1138 46.613281 " clip-rule="nonzero"/></clipPath><clipPath id="1d4d94f591"><rect x="0" width="1440" y="0" height="273"/></clipPath></defs><g transform="matrix(1, 0, 0, 1, 0, 0.000000000000004827)"><g clip-path="url(#1d4d94f591)"><path fill="#ffffff" d="M 192.566406 102.039062 C 191.582031 101.050781 190.566406 100.089844 189.519531 99.160156 C 188.476562 98.230469 187.410156 97.332031 186.316406 96.464844 C 185.21875 95.59375 184.101562 94.757812 182.960938 93.953125 C 181.816406 93.148438 180.652344 92.378906 179.464844 91.640625 C 178.277344 90.902344 177.070312 90.199219 175.84375 89.527344 C 174.617188 88.859375 173.371094 88.226562 172.109375 87.628906 C 170.84375 87.03125 169.566406 86.46875 168.269531 85.945312 C 166.976562 85.421875 165.664062 84.933594 164.34375 84.484375 C 163.019531 84.035156 161.683594 83.625 160.335938 83.253906 C 158.988281 82.878906 157.632812 82.546875 156.269531 82.25 C 154.902344 81.957031 153.527344 81.699219 152.148438 81.484375 C 150.765625 81.269531 149.382812 81.089844 147.992188 80.953125 C 146.601562 80.816406 145.207031 80.71875 143.808594 80.664062 C 142.414062 80.605469 141.015625 80.589844 139.621094 80.609375 C 138.222656 80.632812 136.828125 80.695312 135.433594 80.800781 C 134.039062 80.902344 132.648438 81.046875 131.265625 81.226562 C 129.878906 81.410156 128.5 81.632812 127.125 81.894531 C 125.753906 82.15625 124.390625 82.453125 123.035156 82.792969 C 121.679688 83.132812 120.332031 83.511719 119 83.929688 C 117.664062 84.34375 116.34375 84.800781 115.035156 85.292969 C 113.726562 85.785156 112.433594 86.3125 111.15625 86.878906 C 109.878906 87.445312 108.621094 88.046875 107.375 88.6875 C 106.132812 89.324219 104.910156 90 103.703125 90.707031 C 102.5 91.414062 101.316406 92.160156 100.15625 92.933594 C 98.992188 93.710938 97.855469 94.519531 96.738281 95.363281 C 95.621094 96.203125 94.53125 97.078125 93.464844 97.980469 C 92.402344 98.882812 91.363281 99.820312 90.351562 100.78125 C 89.335938 101.746094 88.355469 102.738281 87.398438 103.757812 C 86.441406 104.777344 85.519531 105.824219 84.621094 106.898438 C 83.726562 107.96875 82.863281 109.066406 82.03125 110.191406 C 81.199219 111.3125 80.398438 112.457031 79.632812 113.625 C 78.863281 114.792969 78.132812 115.984375 77.433594 117.195312 C 76.734375 118.402344 76.070312 119.632812 75.441406 120.882812 C 74.8125 122.128906 74.222656 123.394531 73.664062 124.675781 C 73.109375 125.960938 72.589844 127.257812 72.109375 128.570312 C 71.628906 129.878906 71.183594 131.207031 70.777344 132.542969 C 70.371094 133.878906 70.003906 135.226562 69.675781 136.585938 C 69.347656 137.945312 69.058594 139.3125 68.808594 140.6875 C 68.558594 142.0625 68.347656 143.441406 68.175781 144.828125 C 68.007812 146.214844 67.875 147.605469 67.785156 149 C 67.691406 150.394531 67.640625 151.792969 67.628906 153.1875 C 67.617188 154.585938 67.644531 155.984375 67.714844 157.378906 C 67.78125 158.773438 67.890625 160.167969 68.039062 161.558594 C 68.1875 162.945312 68.375 164.332031 68.605469 165.710938 C 68.832031 167.089844 69.097656 168.460938 69.402344 169.824219 C 69.710938 171.1875 70.054688 172.539062 70.4375 173.882812 C 70.824219 175.226562 71.246094 176.558594 71.703125 177.878906 C 72.164062 179.199219 72.660156 180.503906 73.195312 181.796875 C 73.730469 183.085938 74.304688 184.363281 74.910156 185.621094 C 75.519531 186.878906 76.160156 188.117188 76.839844 189.339844 C 77.519531 190.5625 78.234375 191.761719 78.980469 192.945312 C 79.726562 194.125 80.507812 195.28125 81.324219 196.417969 C 82.136719 197.554688 82.984375 198.667969 83.859375 199.753906 C 84.738281 200.839844 85.644531 201.902344 86.585938 202.9375 C 87.523438 203.972656 88.488281 204.980469 89.488281 205.960938 C 90.484375 206.941406 91.507812 207.894531 92.558594 208.816406 C 93.609375 209.734375 94.683594 210.625 95.785156 211.488281 C 96.886719 212.347656 98.011719 213.175781 99.160156 213.96875 C 100.3125 214.765625 101.480469 215.527344 102.675781 216.253906 C 103.867188 216.984375 105.078125 217.675781 106.3125 218.335938 C 107.542969 218.996094 108.796875 219.617188 110.0625 220.203125 C 111.332031 220.792969 112.613281 221.34375 113.914062 221.855469 C 115.214844 222.371094 116.527344 222.84375 117.855469 223.285156 C 119.183594 223.722656 120.519531 224.121094 121.871094 224.484375 C 123.21875 224.847656 124.578125 225.167969 125.949219 225.453125 C 127.316406 225.738281 128.691406 225.980469 130.074219 226.1875 C 131.457031 226.390625 132.84375 226.554688 134.234375 226.683594 C 135.628906 226.808594 137.019531 226.894531 138.417969 226.9375 C 139.816406 226.984375 141.210938 226.992188 142.609375 226.957031 C 144.007812 226.921875 145.402344 226.847656 146.792969 226.734375 C 148.1875 226.621094 149.574219 226.464844 150.960938 226.273438 C 152.34375 226.078125 153.71875 225.84375 155.089844 225.574219 C 156.460938 225.300781 157.824219 224.988281 159.175781 224.636719 C 160.527344 224.289062 161.871094 223.898438 163.203125 223.472656 C 164.53125 223.042969 165.847656 222.578125 167.152344 222.074219 C 168.457031 221.574219 169.746094 221.03125 171.019531 220.457031 C 172.292969 219.878906 173.546875 219.265625 174.785156 218.617188 C 176.023438 217.96875 177.242188 217.285156 178.4375 216.566406 C 179.636719 215.847656 180.816406 215.097656 181.972656 214.3125 C 183.125 213.523438 184.257812 212.707031 185.367188 211.855469 C 186.476562 211.003906 187.558594 210.125 188.617188 209.210938 C 189.675781 208.296875 190.707031 207.355469 191.710938 206.382812 C 192.714844 205.410156 193.691406 204.410156 194.636719 203.382812 C 195.585938 202.355469 196.503906 201.300781 197.390625 200.222656 C 198.277344 199.140625 199.128906 198.039062 199.953125 196.90625 C 200.777344 195.777344 201.566406 194.625 202.324219 193.453125 C 203.082031 192.277344 203.804688 191.082031 204.496094 189.867188 C 205.183594 188.652344 205.835938 187.417969 206.453125 186.164062 C 207.074219 184.910156 207.65625 183.640625 208.199219 182.351562 C 208.746094 181.066406 209.253906 179.765625 209.722656 178.449219 C 210.195312 177.132812 210.628906 175.804688 211.023438 174.464844 C 211.417969 173.125 211.773438 171.773438 212.089844 170.410156 C 212.410156 169.050781 212.6875 167.683594 212.925781 166.304688 C 213.164062 164.929688 213.363281 163.546875 213.523438 162.15625 C 213.683594 160.769531 213.804688 159.375 213.882812 157.980469 C 213.964844 156.585938 214.003906 155.191406 214.003906 153.792969 C 214.011719 148.984375 213.550781 144.222656 212.617188 139.507812 C 211.683594 134.792969 210.300781 130.214844 208.460938 125.773438 C 206.621094 121.332031 204.363281 117.113281 201.6875 113.121094 C 199.015625 109.125 195.972656 105.429688 192.566406 102.039062 Z M 185.289062 198.265625 C 184.4375 199.113281 183.566406 199.9375 182.667969 200.734375 C 181.773438 201.535156 180.851562 202.308594 179.914062 203.054688 C 178.972656 203.796875 178.007812 204.515625 177.027344 205.207031 C 176.046875 205.898438 175.042969 206.5625 174.023438 207.195312 C 173.003906 207.828125 171.96875 208.429688 170.914062 209.003906 C 169.859375 209.578125 168.789062 210.121094 167.703125 210.636719 C 166.617188 211.148438 165.515625 211.628906 164.402344 212.078125 C 163.289062 212.527344 162.164062 212.945312 161.027344 213.332031 C 159.890625 213.71875 158.742188 214.070312 157.585938 214.390625 C 156.429688 214.707031 155.261719 214.996094 154.089844 215.246094 C 152.914062 215.5 151.734375 215.71875 150.546875 215.902344 C 149.363281 216.089844 148.171875 216.238281 146.976562 216.355469 C 145.78125 216.472656 144.582031 216.554688 143.382812 216.605469 C 142.183594 216.652344 140.984375 216.667969 139.785156 216.648438 C 138.582031 216.625 137.382812 216.570312 136.1875 216.480469 C 134.988281 216.394531 133.796875 216.269531 132.605469 216.113281 C 131.414062 215.953125 130.230469 215.761719 129.050781 215.539062 C 127.871094 215.3125 126.699219 215.054688 125.535156 214.761719 C 124.371094 214.46875 123.214844 214.144531 122.070312 213.785156 C 120.921875 213.425781 119.789062 213.035156 118.664062 212.609375 C 117.539062 212.1875 116.429688 211.730469 115.332031 211.242188 C 114.234375 210.757812 113.152344 210.238281 112.085938 209.6875 C 111.019531 209.140625 109.964844 208.558594 108.933594 207.949219 C 107.898438 207.339844 106.882812 206.703125 105.882812 206.035156 C 104.886719 205.367188 103.90625 204.671875 102.949219 203.945312 C 101.992188 203.222656 101.054688 202.472656 100.140625 201.695312 C 99.226562 200.917969 98.332031 200.113281 97.464844 199.285156 C 96.59375 198.457031 95.75 197.605469 94.929688 196.726562 C 94.109375 195.851562 93.316406 194.949219 92.546875 194.027344 C 91.777344 193.105469 91.035156 192.160156 90.324219 191.195312 C 89.609375 190.230469 88.921875 189.246094 88.261719 188.242188 C 87.605469 187.238281 86.976562 186.214844 86.378906 185.175781 C 85.777344 184.136719 85.207031 183.078125 84.667969 182.007812 C 84.128906 180.933594 83.621094 179.84375 83.144531 178.742188 C 82.667969 177.640625 82.222656 176.527344 81.8125 175.398438 C 81.398438 174.273438 81.019531 173.132812 80.671875 171.984375 C 80.324219 170.835938 80.007812 169.675781 79.726562 168.507812 C 79.445312 167.339844 79.199219 166.167969 78.984375 164.984375 C 78.769531 163.804688 78.589844 162.617188 78.445312 161.425781 C 78.296875 160.234375 78.1875 159.039062 78.109375 157.839844 C 78.03125 156.640625 77.988281 155.441406 77.980469 154.242188 C 77.96875 153.042969 77.996094 151.839844 78.054688 150.640625 C 78.117188 149.441406 78.210938 148.246094 78.339844 147.054688 C 78.464844 145.859375 78.628906 144.667969 78.824219 143.484375 C 79.023438 142.300781 79.253906 141.121094 79.515625 139.953125 C 79.78125 138.78125 80.078125 137.617188 80.410156 136.464844 C 80.738281 135.308594 81.101562 134.164062 81.5 133.03125 C 81.894531 131.898438 82.324219 130.777344 82.785156 129.667969 C 83.246094 128.558594 83.734375 127.464844 84.257812 126.382812 C 84.78125 125.300781 85.335938 124.238281 85.921875 123.1875 C 86.503906 122.140625 87.117188 121.109375 87.761719 120.09375 C 88.40625 119.082031 89.078125 118.085938 89.777344 117.109375 C 90.476562 116.136719 91.203125 115.179688 91.960938 114.246094 C 92.714844 113.3125 93.496094 112.402344 94.304688 111.511719 C 95.109375 110.625 95.941406 109.757812 96.796875 108.917969 C 97.65625 108.074219 98.535156 107.261719 99.4375 106.46875 C 100.34375 105.679688 101.269531 104.914062 102.214844 104.175781 C 103.164062 103.4375 104.128906 102.726562 105.117188 102.046875 C 106.105469 101.363281 107.113281 100.710938 108.136719 100.085938 C 109.164062 99.460938 110.207031 98.863281 111.265625 98.300781 C 112.324219 97.734375 113.398438 97.199219 114.488281 96.695312 C 115.578125 96.195312 116.683594 95.722656 117.800781 95.28125 C 118.917969 94.839844 120.046875 94.433594 121.1875 94.058594 C 122.328125 93.683594 123.476562 93.339844 124.636719 93.03125 C 125.796875 92.71875 126.964844 92.445312 128.140625 92.203125 C 129.316406 91.957031 130.5 91.75 131.6875 91.574219 C 132.875 91.398438 134.066406 91.257812 135.261719 91.152344 C 136.460938 91.046875 137.65625 90.972656 138.855469 90.933594 C 140.058594 90.894531 141.257812 90.894531 142.457031 90.921875 C 143.660156 90.953125 144.855469 91.019531 146.054688 91.117188 C 147.25 91.21875 148.441406 91.351562 149.632812 91.519531 C 150.820312 91.6875 152.003906 91.886719 153.179688 92.125 C 154.359375 92.359375 155.527344 92.628906 156.691406 92.929688 C 157.851562 93.234375 159.003906 93.566406 160.148438 93.9375 C 161.289062 94.304688 162.421875 94.707031 163.542969 95.140625 C 164.660156 95.570312 165.769531 96.039062 166.863281 96.535156 C 167.953125 97.03125 169.03125 97.558594 170.09375 98.117188 C 171.160156 98.675781 172.203125 99.261719 173.234375 99.882812 C 174.261719 100.5 175.273438 101.148438 176.265625 101.824219 C 177.257812 102.5 178.230469 103.203125 179.183594 103.9375 C 180.132812 104.667969 181.0625 105.425781 181.972656 106.210938 C 182.882812 106.996094 183.765625 107.808594 184.628906 108.644531 C 185.488281 109.480469 186.328125 110.339844 187.140625 111.222656 C 187.953125 112.105469 188.738281 113.011719 189.5 113.941406 C 190.261719 114.871094 190.996094 115.820312 191.699219 116.792969 C 192.40625 117.761719 193.085938 118.753906 193.734375 119.765625 C 194.382812 120.773438 195.003906 121.800781 195.59375 122.847656 C 196.1875 123.890625 196.746094 124.953125 197.277344 126.03125 C 197.804688 127.109375 198.304688 128.199219 198.773438 129.304688 C 199.238281 130.414062 199.675781 131.53125 200.078125 132.660156 C 200.480469 133.792969 200.851562 134.933594 201.191406 136.085938 C 201.527344 137.238281 201.832031 138.398438 202.101562 139.570312 C 202.375 140.738281 202.613281 141.914062 202.816406 143.097656 C 203.019531 144.28125 203.191406 145.46875 203.328125 146.664062 C 203.460938 147.855469 203.5625 149.050781 203.632812 150.25 C 203.699219 151.449219 203.730469 152.648438 203.730469 153.851562 C 203.734375 157.976562 203.332031 162.0625 202.527344 166.113281 C 201.722656 170.160156 200.527344 174.089844 198.945312 177.898438 C 197.363281 181.710938 195.421875 185.332031 193.125 188.757812 C 190.824219 192.1875 188.214844 195.355469 185.289062 198.265625 Z M 185.289062 198.265625 " fill-opacity="1" fill-rule="nonzero"/><path fill="#ffffff" d="M 277.902344 112.140625 L 151.628906 3.515625 C 150.964844 2.957031 150.253906 2.457031 149.503906 2.023438 C 148.75 1.589844 147.964844 1.222656 147.148438 0.925781 C 146.332031 0.625 145.496094 0.402344 144.640625 0.25 C 143.78125 0.101562 142.921875 0.0234375 142.050781 0.0234375 C 141.179688 0.0234375 140.320312 0.101562 139.464844 0.25 C 138.605469 0.402344 137.769531 0.625 136.953125 0.925781 C 136.136719 1.222656 135.351562 1.589844 134.601562 2.023438 C 133.847656 2.457031 133.136719 2.957031 132.472656 3.515625 L 4.75 112.003906 C -4.90625 120.210938 1.273438 135.332031 14.308594 135.332031 L 36.902344 135.332031 C 33.175781 145.777344 31.324219 156.546875 31.339844 167.636719 C 31.34375 172.582031 31.71875 177.496094 32.46875 182.382812 C 33.222656 187.269531 34.335938 192.070312 35.820312 196.785156 C 37.300781 201.5 39.132812 206.078125 41.308594 210.515625 C 43.488281 214.953125 45.992188 219.199219 48.816406 223.253906 C 50.90625 226.300781 53.160156 229.226562 55.578125 232.019531 L 66.835938 222.210938 L 89.890625 202.070312 L 92.421875 199.964844 L 84.699219 192.78125 L 60.210938 213.386719 C 58.011719 210.007812 56.070312 206.484375 54.378906 202.824219 C 52.691406 199.164062 51.273438 195.402344 50.128906 191.535156 C 48.984375 187.667969 48.125 183.738281 47.550781 179.75 C 46.972656 175.757812 46.6875 171.746094 46.691406 167.714844 C 46.703125 163.644531 47.003906 159.597656 47.601562 155.570312 C 48.195312 151.542969 49.078125 147.578125 50.25 143.679688 C 51.421875 139.78125 52.867188 135.988281 54.585938 132.296875 C 56.308594 128.609375 58.285156 125.0625 60.519531 121.660156 L 21.28125 121.660156 C 20.894531 121.683594 20.511719 121.648438 20.136719 121.554688 C 19.761719 121.460938 19.410156 121.3125 19.078125 121.105469 C 18.75 120.902344 18.460938 120.652344 18.210938 120.355469 C 17.960938 120.0625 17.761719 119.734375 17.613281 119.375 C 17.464844 119.019531 17.375 118.648438 17.34375 118.261719 C 17.3125 117.875 17.339844 117.492188 17.429688 117.117188 C 17.515625 116.738281 17.660156 116.382812 17.859375 116.050781 C 18.058594 115.71875 18.304688 115.425781 18.597656 115.171875 L 134.460938 16.683594 C 134.992188 16.238281 135.558594 15.84375 136.160156 15.5 C 136.757812 15.152344 137.386719 14.859375 138.035156 14.625 C 138.6875 14.386719 139.355469 14.210938 140.035156 14.089844 C 140.71875 13.96875 141.40625 13.910156 142.097656 13.910156 C 142.792969 13.910156 143.480469 13.96875 144.160156 14.089844 C 144.84375 14.210938 145.511719 14.386719 146.164062 14.625 C 146.8125 14.859375 147.4375 15.152344 148.039062 15.5 C 148.640625 15.84375 149.207031 16.238281 149.738281 16.683594 L 264.117188 115.171875 C 264.402344 115.425781 264.648438 115.714844 264.84375 116.046875 C 265.042969 116.375 265.183594 116.730469 265.269531 117.101562 C 265.359375 117.476562 265.386719 117.855469 265.355469 118.238281 C 265.324219 118.621094 265.234375 118.992188 265.085938 119.347656 C 264.941406 119.703125 264.742188 120.027344 264.496094 120.320312 C 264.246094 120.613281 263.960938 120.863281 263.632812 121.066406 C 263.308594 121.269531 262.957031 121.417969 262.585938 121.515625 C 262.210938 121.609375 261.835938 121.644531 261.449219 121.621094 L 219.855469 121.621094 C 222.09375 125.03125 224.078125 128.585938 225.804688 132.28125 C 227.53125 135.976562 228.980469 139.78125 230.160156 143.6875 C 231.335938 147.59375 232.226562 151.566406 232.828125 155.601562 C 233.433594 159.636719 233.742188 163.695312 233.757812 167.773438 C 233.746094 170.6875 233.585938 173.597656 233.273438 176.496094 C 232.964844 179.394531 232.507812 182.269531 231.898438 185.121094 C 231.292969 187.972656 230.539062 190.789062 229.644531 193.5625 C 228.75 196.335938 227.710938 199.058594 226.535156 201.726562 C 225.359375 204.394531 224.046875 206.992188 222.605469 209.527344 C 221.160156 212.058594 219.589844 214.511719 217.894531 216.882812 C 216.195312 219.253906 214.382812 221.53125 212.453125 223.714844 C 210.519531 225.902344 208.480469 227.980469 206.335938 229.953125 C 204.117188 232.019531 201.800781 233.972656 199.398438 235.816406 C 196.992188 237.660156 194.503906 239.386719 191.933594 240.996094 C 189.367188 242.605469 186.726562 244.089844 184.015625 245.449219 C 181.308594 246.808594 178.539062 248.039062 175.714844 249.136719 C 172.890625 250.238281 170.019531 251.199219 167.101562 252.027344 C 164.1875 252.855469 161.238281 253.542969 158.257812 254.089844 C 155.273438 254.640625 152.273438 255.046875 149.253906 255.3125 C 146.234375 255.574219 143.210938 255.699219 140.175781 255.675781 C 133.523438 255.695312 126.929688 255.050781 120.402344 253.746094 C 119.894531 253.625 119.382812 253.558594 118.859375 253.542969 C 118.339844 253.53125 117.820312 253.570312 117.308594 253.660156 C 116.792969 253.753906 116.296875 253.898438 115.8125 254.097656 C 115.332031 254.292969 114.871094 254.535156 114.4375 254.828125 C 114.007812 255.117188 113.609375 255.449219 113.246094 255.824219 C 112.878906 256.199219 112.558594 256.605469 112.28125 257.046875 C 112 257.484375 111.769531 257.949219 111.585938 258.4375 C 111.402344 258.925781 111.269531 259.429688 111.191406 259.945312 L 111.191406 260.097656 C 111.152344 260.546875 111.152344 260.992188 111.195312 261.4375 C 111.238281 261.882812 111.320312 262.320312 111.445312 262.753906 C 111.570312 263.183594 111.734375 263.597656 111.933594 263.996094 C 112.136719 264.398438 112.375 264.773438 112.648438 265.128906 C 112.921875 265.484375 113.226562 265.8125 113.5625 266.109375 C 113.894531 266.40625 114.253906 266.671875 114.640625 266.902344 C 115.023438 267.132812 115.425781 267.324219 115.847656 267.480469 C 116.265625 267.636719 116.699219 267.75 117.140625 267.824219 C 121.539062 268.738281 125.976562 269.390625 130.457031 269.777344 C 134.933594 270.164062 139.417969 270.285156 143.910156 270.140625 C 148.402344 269.996094 152.867188 269.585938 157.3125 268.910156 C 161.753906 268.234375 166.140625 267.300781 170.472656 266.101562 C 174.804688 264.90625 179.050781 263.457031 183.210938 261.757812 C 187.371094 260.058594 191.414062 258.117188 195.34375 255.9375 C 199.273438 253.753906 203.0625 251.347656 206.707031 248.71875 C 210.347656 246.089844 213.824219 243.253906 217.132812 240.210938 C 219.628906 237.910156 221.996094 235.492188 224.242188 232.949219 C 226.488281 230.410156 228.601562 227.757812 230.574219 225 C 232.546875 222.242188 234.375 219.386719 236.054688 216.441406 C 237.734375 213.496094 239.257812 210.46875 240.625 207.367188 C 241.996094 204.261719 243.199219 201.097656 244.242188 197.871094 C 245.285156 194.640625 246.160156 191.371094 246.867188 188.050781 C 247.574219 184.734375 248.109375 181.390625 248.46875 178.015625 C 248.832031 174.644531 249.019531 171.261719 249.035156 167.871094 C 249.046875 156.777344 247.183594 146.007812 243.453125 135.5625 L 268.265625 135.5625 C 281.261719 135.410156 287.480469 120.402344 277.902344 112.140625 Z M 277.902344 112.140625 " fill-opacity="1" fill-rule="nonzero"/><path fill="#ffffff" d="M 118.144531 121.351562 L 125.578125 121.351562 C 126.199219 121.351562 126.808594 121.410156 127.417969 121.53125 C 128.023438 121.652344 128.613281 121.832031 129.183594 122.066406 C 129.757812 122.304688 130.300781 122.59375 130.8125 122.9375 C 131.328125 123.28125 131.804688 123.671875 132.242188 124.109375 C 132.679688 124.546875 133.070312 125.023438 133.414062 125.539062 C 133.757812 126.054688 134.046875 126.597656 134.285156 127.167969 C 134.523438 127.738281 134.699219 128.328125 134.820312 128.933594 C 134.941406 129.542969 135.003906 130.15625 135.003906 130.773438 L 135.003906 138.207031 C 135.003906 138.828125 134.941406 139.441406 134.820312 140.046875 C 134.699219 140.652344 134.523438 141.242188 134.285156 141.816406 C 134.046875 142.386719 133.757812 142.929688 133.414062 143.445312 C 133.070312 143.957031 132.679688 144.433594 132.242188 144.871094 C 131.804688 145.308594 131.328125 145.699219 130.8125 146.042969 C 130.300781 146.386719 129.757812 146.679688 129.183594 146.914062 C 128.613281 147.152344 128.023438 147.332031 127.417969 147.453125 C 126.808594 147.570312 126.199219 147.632812 125.578125 147.632812 L 118.144531 147.632812 C 117.523438 147.632812 116.914062 147.570312 116.304688 147.453125 C 115.699219 147.332031 115.109375 147.152344 114.539062 146.914062 C 113.964844 146.679688 113.421875 146.386719 112.910156 146.042969 C 112.394531 145.699219 111.917969 145.308594 111.480469 144.871094 C 111.042969 144.433594 110.652344 143.957031 110.308594 143.445312 C 109.964844 142.929688 109.675781 142.386719 109.4375 141.816406 C 109.199219 141.242188 109.023438 140.652344 108.902344 140.046875 C 108.78125 139.441406 108.71875 138.828125 108.71875 138.207031 L 108.71875 130.773438 C 108.71875 130.15625 108.78125 129.542969 108.902344 128.933594 C 109.023438 128.328125 109.199219 127.738281 109.4375 127.167969 C 109.675781 126.597656 109.964844 126.054688 110.308594 125.539062 C 110.652344 125.023438 111.042969 124.546875 111.480469 124.109375 C 111.917969 123.671875 112.394531 123.28125 112.910156 122.9375 C 113.421875 122.59375 113.964844 122.304688 114.539062 122.066406 C 115.109375 121.832031 115.699219 121.652344 116.304688 121.53125 C 116.914062 121.410156 117.523438 121.351562 118.144531 121.351562 Z M 118.144531 121.351562 " fill-opacity="1" fill-rule="nonzero"/><path fill="#ffffff" d="M 156.050781 121.351562 L 163.484375 121.351562 C 164.105469 121.351562 164.71875 121.410156 165.324219 121.53125 C 165.929688 121.652344 166.519531 121.832031 167.09375 122.066406 C 167.664062 122.304688 168.207031 122.59375 168.722656 122.9375 C 169.234375 123.28125 169.710938 123.671875 170.148438 124.109375 C 170.585938 124.546875 170.976562 125.023438 171.320312 125.539062 C 171.664062 126.054688 171.957031 126.597656 172.191406 127.167969 C 172.429688 127.738281 172.609375 128.328125 172.730469 128.933594 C 172.847656 129.542969 172.910156 130.15625 172.910156 130.773438 L 172.910156 138.207031 C 172.910156 138.828125 172.847656 139.441406 172.730469 140.046875 C 172.609375 140.652344 172.429688 141.242188 172.191406 141.816406 C 171.957031 142.386719 171.664062 142.929688 171.320312 143.445312 C 170.976562 143.957031 170.585938 144.433594 170.148438 144.871094 C 169.710938 145.308594 169.234375 145.699219 168.722656 146.042969 C 168.207031 146.386719 167.664062 146.679688 167.09375 146.914062 C 166.519531 147.152344 165.929688 147.332031 165.324219 147.453125 C 164.71875 147.570312 164.105469 147.632812 163.484375 147.632812 L 156.050781 147.632812 C 155.433594 147.632812 154.820312 147.570312 154.210938 147.453125 C 153.605469 147.332031 153.015625 147.152344 152.445312 146.914062 C 151.875 146.679688 151.332031 146.386719 150.816406 146.042969 C 150.300781 145.699219 149.824219 145.308594 149.386719 144.871094 C 148.949219 144.433594 148.558594 143.957031 148.214844 143.445312 C 147.871094 142.929688 147.582031 142.386719 147.34375 141.816406 C 147.109375 141.242188 146.929688 140.652344 146.808594 140.046875 C 146.6875 139.441406 146.628906 138.828125 146.628906 138.207031 L 146.628906 130.773438 C 146.628906 130.15625 146.6875 129.542969 146.808594 128.933594 C 146.929688 128.328125 147.109375 127.738281 147.34375 127.167969 C 147.582031 126.597656 147.871094 126.054688 148.214844 125.539062 C 148.558594 125.023438 148.949219 124.546875 149.386719 124.109375 C 149.824219 123.671875 150.300781 123.28125 150.816406 122.9375 C 151.332031 122.59375 151.875 122.304688 152.445312 122.066406 C 153.015625 121.832031 153.605469 121.652344 154.210938 121.53125 C 154.820312 121.410156 155.433594 121.351562 156.050781 121.351562 Z M 156.050781 121.351562 " fill-opacity="1" fill-rule="nonzero"/><path fill="#ffffff" d="M 118.144531 159.953125 L 125.578125 159.953125 C 126.199219 159.953125 126.808594 160.011719 127.417969 160.132812 C 128.023438 160.253906 128.613281 160.433594 129.183594 160.671875 C 129.757812 160.90625 130.300781 161.195312 130.8125 161.539062 C 131.328125 161.882812 131.804688 162.273438 132.242188 162.710938 C 132.679688 163.152344 133.070312 163.625 133.414062 164.140625 C 133.757812 164.65625 134.046875 165.199219 134.285156 165.769531 C 134.523438 166.34375 134.699219 166.929688 134.820312 167.539062 C 134.941406 168.144531 135.003906 168.757812 135.003906 169.375 L 135.003906 176.8125 C 135.003906 177.429688 134.941406 178.042969 134.820312 178.648438 C 134.699219 179.257812 134.523438 179.847656 134.285156 180.417969 C 134.046875 180.988281 133.757812 181.53125 133.414062 182.046875 C 133.070312 182.5625 132.679688 183.039062 132.242188 183.476562 C 131.804688 183.914062 131.328125 184.304688 130.8125 184.648438 C 130.300781 184.992188 129.757812 185.28125 129.183594 185.515625 C 128.613281 185.753906 128.023438 185.933594 127.417969 186.054688 C 126.808594 186.175781 126.199219 186.234375 125.578125 186.234375 L 118.144531 186.234375 C 117.523438 186.234375 116.914062 186.175781 116.304688 186.054688 C 115.699219 185.933594 115.109375 185.753906 114.539062 185.515625 C 113.964844 185.28125 113.421875 184.992188 112.910156 184.648438 C 112.394531 184.304688 111.917969 183.914062 111.480469 183.476562 C 111.042969 183.039062 110.652344 182.5625 110.308594 182.046875 C 109.964844 181.53125 109.675781 180.988281 109.4375 180.417969 C 109.199219 179.847656 109.023438 179.257812 108.902344 178.648438 C 108.78125 178.042969 108.71875 177.429688 108.71875 176.8125 L 108.71875 169.375 C 108.71875 168.757812 108.78125 168.144531 108.902344 167.539062 C 109.023438 166.929688 109.199219 166.34375 109.4375 165.769531 C 109.675781 165.199219 109.964844 164.65625 110.308594 164.140625 C 110.652344 163.625 111.042969 163.152344 111.480469 162.710938 C 111.917969 162.273438 112.394531 161.882812 112.910156 161.539062 C 113.421875 161.195312 113.964844 160.90625 114.539062 160.671875 C 115.109375 160.433594 115.699219 160.253906 116.304688 160.132812 C 116.914062 160.011719 117.523438 159.953125 118.144531 159.953125 Z M 118.144531 159.953125 " fill-opacity="1" fill-rule="nonzero"/><path fill="#ffffff" d="M 156.050781 159.953125 L 163.484375 159.953125 C 164.105469 159.953125 164.71875 160.011719 165.324219 160.132812 C 165.929688 160.253906 166.519531 160.433594 167.09375 160.671875 C 167.664062 160.90625 168.207031 161.195312 168.722656 161.539062 C 169.234375 161.882812 169.710938 162.273438 170.148438 162.710938 C 170.585938 163.152344 170.976562 163.625 171.320312 164.140625 C 171.664062 164.65625 171.957031 165.199219 172.191406 165.769531 C 172.429688 166.34375 172.609375 166.929688 172.730469 167.539062 C 172.847656 168.144531 172.910156 168.757812 172.910156 169.375 L 172.910156 176.8125 C 172.910156 177.429688 172.847656 178.042969 172.730469 178.648438 C 172.609375 179.257812 172.429688 179.847656 172.191406 180.417969 C 171.957031 180.988281 171.664062 181.53125 171.320312 182.046875 C 170.976562 182.5625 170.585938 183.039062 170.148438 183.476562 C 169.710938 183.914062 169.234375 184.304688 168.722656 184.648438 C 168.207031 184.992188 167.664062 185.28125 167.09375 185.515625 C 166.519531 185.753906 165.929688 185.933594 165.324219 186.054688 C 164.71875 186.175781 164.105469 186.234375 163.484375 186.234375 L 156.050781 186.234375 C 155.433594 186.234375 154.820312 186.175781 154.210938 186.054688 C 153.605469 185.933594 153.015625 185.753906 152.445312 185.515625 C 151.875 185.28125 151.332031 184.992188 150.816406 184.648438 C 150.300781 184.304688 149.824219 183.914062 149.386719 183.476562 C 148.949219 183.039062 148.558594 182.5625 148.214844 182.046875 C 147.871094 181.53125 147.582031 180.988281 147.34375 180.417969 C 147.109375 179.847656 146.929688 179.257812 146.808594 178.648438 C 146.6875 178.042969 146.628906 177.429688 146.628906 176.8125 L 146.628906 169.375 C 146.628906 168.757812 146.6875 168.144531 146.808594 167.539062 C 146.929688 166.929688 147.109375 166.34375 147.34375 165.769531 C 147.582031 165.199219 147.871094 164.65625 148.214844 164.140625 C 148.558594 163.625 148.949219 163.152344 149.386719 162.710938 C 149.824219 162.273438 150.300781 161.882812 150.816406 161.539062 C 151.332031 161.195312 151.875 160.90625 152.445312 160.671875 C 153.015625 160.433594 153.605469 160.253906 154.210938 160.132812 C 154.820312 160.011719 155.433594 159.953125 156.050781 159.953125 Z M 156.050781 159.953125 " fill-opacity="1" fill-rule="nonzero"/><g clip-path="url(#b7af2f120d)"><path fill="#ffffff" d="M 93.136719 235.324219 L 108.585938 220.589844 C 108.808594 220.375 109.003906 220.136719 109.179688 219.882812 C 109.355469 219.625 109.5 219.355469 109.621094 219.070312 C 109.742188 218.785156 109.832031 218.492188 109.894531 218.1875 C 109.957031 217.882812 109.988281 217.578125 109.988281 217.269531 C 109.988281 216.957031 109.957031 216.652344 109.894531 216.347656 C 109.832031 216.042969 109.742188 215.75 109.621094 215.464844 C 109.5 215.179688 109.355469 214.910156 109.179688 214.652344 C 109.003906 214.398438 108.808594 214.160156 108.585938 213.945312 C 108.359375 213.726562 108.113281 213.53125 107.851562 213.359375 C 107.589844 213.191406 107.3125 213.046875 107.019531 212.925781 C 106.726562 212.808594 106.429688 212.71875 106.121094 212.660156 C 105.8125 212.601562 105.5 212.570312 105.1875 212.570312 C 104.871094 212.570312 104.5625 212.601562 104.253906 212.660156 C 103.945312 212.71875 103.644531 212.808594 103.351562 212.925781 C 103.0625 213.046875 102.785156 213.191406 102.519531 213.359375 C 102.257812 213.53125 102.011719 213.726562 101.789062 213.945312 L 85.835938 229.125 L 76.546875 237.949219 L 48.316406 264.773438 C 48.0625 265.011719 47.839844 265.277344 47.644531 265.570312 C 47.453125 265.859375 47.292969 266.167969 47.171875 266.496094 C 47.046875 266.820312 46.960938 267.15625 46.914062 267.503906 C 46.863281 267.847656 46.855469 268.195312 46.882812 268.542969 C 46.914062 268.890625 46.980469 269.230469 47.089844 269.5625 C 47.195312 269.894531 47.335938 270.210938 47.511719 270.511719 C 47.691406 270.8125 47.898438 271.089844 48.140625 271.34375 C 48.378906 271.597656 48.644531 271.820312 48.933594 272.015625 C 49.398438 272.324219 49.898438 272.550781 50.4375 272.691406 C 50.976562 272.832031 51.527344 272.878906 52.082031 272.835938 C 52.636719 272.789062 53.171875 272.652344 53.679688 272.425781 C 54.191406 272.199219 54.648438 271.894531 55.054688 271.511719 L 83.808594 244.128906 Z M 93.136719 235.324219 " fill-opacity="1" fill-rule="nonzero"/></g><g clip-path="url(#127e577b12)"><path fill="#ffffff" d="M 361.445312 179.570312 L 361.445312 206.558594 C 361.445312 213.132812 359.894531 218.03125 356.8125 221.316406 C 356.066406 222.117188 355.242188 222.832031 354.34375 223.460938 C 353.445312 224.085938 352.492188 224.609375 351.480469 225.03125 C 350.472656 225.457031 349.429688 225.765625 348.351562 225.964844 C 347.273438 226.164062 346.1875 226.25 345.09375 226.214844 C 344.011719 226.246094 342.941406 226.160156 341.878906 225.957031 C 340.820312 225.75 339.792969 225.433594 338.800781 225.007812 C 337.804688 224.578125 336.871094 224.046875 335.996094 223.414062 C 335.117188 222.78125 334.320312 222.0625 333.601562 221.253906 C 330.601562 217.929688 329.109375 213.089844 329.109375 206.558594 L 329.109375 116.578125 C 329.109375 102.042969 334.363281 94.777344 344.871094 94.777344 C 350.230469 94.777344 354.097656 96.476562 356.464844 99.878906 C 358.832031 103.265625 360.136719 108.289062 360.363281 114.902344 C 363.476562 109.210938 367.449219 104.203125 372.285156 99.878906 C 374.609375 98.074219 377.179688 96.734375 379.988281 95.855469 C 382.800781 94.976562 385.675781 94.617188 388.613281 94.777344 C 392.074219 94.789062 395.476562 95.226562 398.824219 96.089844 C 402.171875 96.953125 405.363281 98.21875 408.394531 99.878906 C 414.785156 103.265625 417.988281 107.777344 417.988281 113.371094 C 418.039062 115.21875 417.710938 116.996094 417 118.699219 C 416.285156 120.40625 415.253906 121.886719 413.90625 123.148438 C 412.742188 124.339844 411.398438 125.265625 409.871094 125.929688 C 408.347656 126.59375 406.75 126.949219 405.089844 126.988281 C 402.136719 126.574219 399.265625 125.847656 396.472656 124.804688 C 392.578125 123.449219 388.570312 122.722656 384.449219 122.621094 C 382.351562 122.519531 380.300781 122.785156 378.300781 123.421875 C 376.300781 124.058594 374.46875 125.019531 372.816406 126.3125 C 371.164062 127.808594 369.746094 129.496094 368.566406 131.382812 C 367.382812 133.269531 366.480469 135.28125 365.855469 137.417969 C 364.023438 143.109375 362.867188 148.933594 362.382812 154.890625 C 361.757812 161.695312 361.445312 169.921875 361.445312 179.570312 Z M 361.445312 179.570312 " fill-opacity="1" fill-rule="nonzero"/></g><g clip-path="url(#565b67e541)"><path fill="#ffffff" d="M 519.769531 168.445312 L 456.488281 168.445312 C 456.457031 171.8125 456.820312 175.136719 457.570312 178.414062 C 458.324219 181.695312 459.445312 184.84375 460.9375 187.859375 C 461.546875 189.144531 462.246094 190.378906 463.03125 191.5625 C 463.816406 192.746094 464.683594 193.867188 465.632812 194.925781 C 466.578125 195.984375 467.597656 196.96875 468.6875 197.878906 C 469.777344 198.792969 470.925781 199.621094 472.136719 200.367188 C 473.34375 201.117188 474.601562 201.773438 475.902344 202.335938 C 477.207031 202.902344 478.542969 203.375 479.914062 203.746094 C 481.285156 204.121094 482.675781 204.394531 484.085938 204.566406 C 485.496094 204.742188 486.914062 204.8125 488.332031 204.78125 C 491.925781 204.820312 495.457031 204.371094 498.925781 203.433594 C 502.234375 202.476562 505.332031 201.054688 508.214844 199.167969 C 511.132812 197.335938 513.894531 195.292969 516.503906 193.042969 C 519.035156 190.839844 522.3125 187.839844 526.34375 184.042969 C 527.367188 183.289062 528.488281 182.738281 529.710938 182.386719 C 530.933594 182.035156 532.179688 181.90625 533.445312 182 C 534.882812 181.921875 536.289062 182.101562 537.660156 182.535156 C 539.03125 182.972656 540.28125 183.636719 541.40625 184.53125 C 542.46875 185.523438 543.269531 186.695312 543.8125 188.046875 C 544.351562 189.394531 544.578125 190.796875 544.488281 192.25 C 544.25 195.953125 543.105469 199.355469 541.058594 202.457031 C 538.335938 206.878906 534.878906 210.628906 530.691406 213.703125 C 525.394531 217.660156 519.597656 220.640625 513.296875 222.644531 C 505.457031 225.148438 497.421875 226.332031 489.191406 226.195312 C 468.421875 226.195312 452.277344 220.277344 440.75 208.4375 C 429.222656 196.597656 423.46875 180.539062 423.480469 160.261719 C 423.402344 151.175781 424.824219 142.328125 427.746094 133.722656 C 430.414062 125.839844 434.558594 118.832031 440.179688 112.699219 C 442.984375 109.726562 446.089844 107.105469 449.488281 104.839844 C 452.890625 102.570312 456.503906 100.714844 460.328125 99.265625 C 468.875 96.023438 477.722656 94.464844 486.863281 94.59375 C 492.539062 94.429688 498.136719 95.023438 503.652344 96.378906 C 509.167969 97.734375 514.40625 99.800781 519.359375 102.574219 C 523.667969 104.992188 527.558594 107.957031 531.027344 111.472656 C 534.496094 114.988281 537.414062 118.914062 539.773438 123.253906 C 541.957031 127.203125 543.621094 131.363281 544.765625 135.730469 C 545.910156 140.097656 546.5 144.539062 546.53125 149.054688 C 546.53125 157.21875 544.203125 162.492188 539.550781 164.875 C 534.894531 167.257812 528.300781 168.445312 519.769531 168.445312 Z M 456.488281 150.074219 L 515.15625 150.074219 C 514.367188 139.023438 511.386719 130.757812 506.214844 125.273438 C 504.898438 123.910156 503.457031 122.699219 501.882812 121.640625 C 500.308594 120.582031 498.644531 119.703125 496.886719 119 C 495.125 118.296875 493.3125 117.785156 491.445312 117.464844 C 489.574219 117.144531 487.695312 117.027344 485.800781 117.109375 C 483.941406 117.039062 482.09375 117.171875 480.261719 117.503906 C 478.429688 117.835938 476.652344 118.355469 474.933594 119.074219 C 473.214844 119.789062 471.589844 120.679688 470.066406 121.746094 C 468.539062 122.8125 467.140625 124.027344 465.878906 125.394531 C 460.773438 130.949219 457.714844 139.195312 456.53125 150.074219 Z M 456.488281 150.074219 " fill-opacity="1" fill-rule="nonzero"/></g><g clip-path="url(#3e34e7107a)"><path fill="#ffffff" d="M 603.015625 112.65625 L 603.015625 116.578125 C 605.46875 113.160156 608.273438 110.058594 611.421875 107.269531 C 614.570312 104.480469 617.984375 102.070312 621.671875 100.042969 C 625.277344 98.230469 629.050781 96.878906 632.984375 95.988281 C 636.921875 95.097656 640.90625 94.695312 644.941406 94.777344 C 648.925781 94.707031 652.851562 95.148438 656.722656 96.089844 C 660.59375 97.035156 664.28125 98.453125 667.785156 100.347656 C 671.058594 102.121094 673.976562 104.351562 676.546875 107.042969 C 679.117188 109.734375 681.210938 112.757812 682.828125 116.105469 C 684.960938 120.128906 686.320312 124.394531 686.914062 128.90625 C 687.613281 134.730469 687.925781 140.574219 687.851562 146.441406 L 687.851562 206.558594 C 687.851562 213.050781 686.382812 217.929688 683.421875 221.253906 C 683.046875 221.648438 682.652344 222.023438 682.242188 222.375 C 681.828125 222.730469 681.398438 223.0625 680.953125 223.371094 C 680.503906 223.679688 680.042969 223.96875 679.566406 224.230469 C 679.09375 224.492188 678.605469 224.730469 678.105469 224.941406 C 677.605469 225.15625 677.09375 225.34375 676.574219 225.503906 C 676.054688 225.664062 675.53125 225.796875 674.996094 225.90625 C 674.464844 226.011719 673.925781 226.09375 673.386719 226.144531 C 672.84375 226.199219 672.304688 226.222656 671.761719 226.21875 C 671.214844 226.214844 670.675781 226.1875 670.132812 226.128906 C 669.59375 226.070312 669.058594 225.984375 668.527344 225.871094 C 667.996094 225.757812 667.46875 225.621094 666.953125 225.453125 C 666.433594 225.285156 665.925781 225.09375 665.429688 224.875 C 664.933594 224.65625 664.445312 224.414062 663.972656 224.148438 C 663.5 223.878906 663.042969 223.589844 662.597656 223.273438 C 662.15625 222.960938 661.730469 222.625 661.320312 222.265625 C 660.910156 221.910156 660.519531 221.53125 660.152344 221.132812 C 657.199219 217.800781 655.722656 212.941406 655.722656 206.558594 L 655.722656 152.6875 C 655.722656 142.03125 654.246094 133.867188 651.292969 128.191406 C 648.339844 122.515625 642.4375 119.691406 633.59375 119.71875 C 630.757812 119.703125 627.988281 120.136719 625.292969 121.019531 C 622.597656 121.902344 620.109375 123.191406 617.835938 124.886719 C 615.421875 126.660156 613.328125 128.753906 611.550781 131.164062 C 609.777344 133.578125 608.402344 136.199219 607.421875 139.03125 C 605.832031 143.847656 605.042969 152.851562 605.054688 166.039062 L 605.054688 206.558594 C 605.054688 213.132812 603.523438 218.03125 600.484375 221.316406 C 599.734375 222.125 598.910156 222.839844 598.003906 223.46875 C 597.101562 224.097656 596.144531 224.625 595.125 225.046875 C 594.109375 225.46875 593.0625 225.78125 591.976562 225.976562 C 590.894531 226.175781 589.804688 226.253906 588.703125 226.214844 C 587.617188 226.246094 586.542969 226.152344 585.476562 225.941406 C 584.410156 225.730469 583.378906 225.40625 582.386719 224.96875 C 581.394531 224.527344 580.460938 223.984375 579.585938 223.335938 C 578.714844 222.691406 577.921875 221.957031 577.210938 221.132812 C 574.21875 217.746094 572.722656 212.886719 572.722656 206.558594 L 572.722656 113.128906 C 572.722656 106.988281 574.082031 102.398438 576.804688 99.347656 C 577.496094 98.582031 578.265625 97.902344 579.109375 97.308594 C 579.949219 96.714844 580.847656 96.21875 581.800781 95.824219 C 582.753906 95.429688 583.738281 95.144531 584.757812 94.964844 C 585.773438 94.789062 586.796875 94.726562 587.828125 94.777344 C 590.582031 94.746094 593.144531 95.425781 595.523438 96.816406 C 597.964844 98.308594 599.796875 100.347656 601.015625 102.941406 C 602.460938 106.019531 603.128906 109.257812 603.015625 112.65625 Z M 603.015625 112.65625 " fill-opacity="1" fill-rule="nonzero"/></g><g clip-path="url(#8a0f0e0d4b)"><path fill="#ffffff" d="M 721.902344 97.613281 L 725.453125 97.613281 L 725.453125 78.199219 C 725.453125 73 725.59375 68.917969 725.882812 65.953125 C 726.066406 63.230469 726.835938 60.6875 728.1875 58.316406 C 729.507812 56.019531 731.324219 54.222656 733.636719 52.929688 C 736.089844 51.519531 738.730469 50.839844 741.558594 50.886719 C 743.644531 50.898438 745.652344 51.304688 747.582031 52.105469 C 749.511719 52.902344 751.21875 54.035156 752.703125 55.5 C 753.789062 56.5 754.691406 57.640625 755.410156 58.929688 C 756.128906 60.21875 756.628906 61.585938 756.910156 63.03125 C 757.589844 67.203125 757.882812 71.402344 757.785156 75.628906 L 757.785156 97.613281 L 769.625 97.613281 C 771.515625 97.488281 773.367188 97.707031 775.175781 98.269531 C 776.984375 98.832031 778.632812 99.703125 780.117188 100.878906 C 781.304688 101.9375 782.210938 103.195312 782.839844 104.65625 C 783.464844 106.117188 783.757812 107.640625 783.710938 109.226562 C 783.789062 110.160156 783.726562 111.078125 783.523438 111.992188 C 783.324219 112.902344 782.996094 113.765625 782.539062 114.578125 C 782.078125 115.390625 781.511719 116.121094 780.835938 116.761719 C 780.160156 117.40625 779.402344 117.9375 778.566406 118.351562 C 773.878906 120.332031 768.992188 121.195312 763.910156 120.945312 L 757.785156 120.945312 L 757.785156 180.386719 C 757.734375 184.292969 757.910156 188.183594 758.316406 192.066406 C 758.570312 194.574219 759.515625 196.785156 761.15625 198.699219 C 762.175781 199.636719 763.339844 200.324219 764.652344 200.765625 C 765.964844 201.207031 767.308594 201.363281 768.6875 201.230469 C 771.285156 201.148438 773.851562 200.8125 776.382812 200.230469 C 778.875 199.652344 781.398438 199.316406 783.957031 199.230469 C 785.296875 199.242188 786.582031 199.523438 787.804688 200.070312 C 789.027344 200.617188 790.09375 201.382812 791 202.375 C 792.039062 203.390625 792.832031 204.574219 793.378906 205.925781 C 793.925781 207.273438 794.179688 208.675781 794.144531 210.128906 C 794.144531 215.328125 791.296875 219.308594 785.609375 222.070312 C 779.921875 224.835938 771.757812 226.195312 761.113281 226.15625 C 751.003906 226.15625 743.347656 224.460938 738.148438 221.070312 C 736.894531 220.273438 735.722656 219.363281 734.636719 218.34375 C 733.554688 217.324219 732.574219 216.210938 731.699219 215.003906 C 730.828125 213.796875 730.074219 212.523438 729.441406 211.171875 C 728.808594 209.824219 728.3125 208.429688 727.941406 206.988281 C 726.117188 199.074219 725.304688 191.058594 725.511719 182.941406 L 725.511719 120.945312 L 721.246094 120.945312 C 719.328125 121.078125 717.449219 120.859375 715.609375 120.289062 C 713.773438 119.71875 712.097656 118.835938 710.589844 117.636719 C 709.390625 116.578125 708.46875 115.3125 707.828125 113.839844 C 707.191406 112.367188 706.894531 110.832031 706.9375 109.226562 C 706.917969 108.433594 706.988281 107.644531 707.144531 106.863281 C 707.304688 106.082031 707.554688 105.332031 707.886719 104.605469 C 708.21875 103.882812 708.628906 103.207031 709.117188 102.578125 C 709.605469 101.949219 710.15625 101.382812 710.773438 100.878906 C 712.378906 99.695312 714.136719 98.824219 716.050781 98.261719 C 717.960938 97.703125 719.910156 97.484375 721.902344 97.613281 Z M 721.902344 97.613281 " fill-opacity="1" fill-rule="nonzero"/></g><path fill="#ffffff" d="M 922.625 76.769531 L 843.398438 76.769531 L 843.398438 119.414062 L 916.355469 119.414062 C 921.71875 119.414062 925.71875 120.617188 928.359375 123.027344 C 929.691406 124.246094 930.707031 125.6875 931.402344 127.355469 C 932.101562 129.019531 932.410156 130.753906 932.339844 132.558594 C 932.402344 134.375 932.09375 136.125 931.410156 137.804688 C 930.726562 139.488281 929.730469 140.957031 928.421875 142.214844 C 925.828125 144.6875 921.785156 145.929688 916.355469 145.929688 L 843.398438 145.929688 L 843.398438 195.308594 L 925.339844 195.308594 C 930.878906 195.308594 935.046875 196.597656 937.851562 199.167969 C 938.546875 199.820312 939.164062 200.535156 939.707031 201.320312 C 940.246094 202.101562 940.699219 202.933594 941.058594 203.816406 C 941.417969 204.695312 941.683594 205.605469 941.847656 206.542969 C 942.011719 207.480469 942.074219 208.425781 942.035156 209.375 C 942.070312 210.308594 942.003906 211.238281 941.835938 212.160156 C 941.667969 213.082031 941.402344 213.972656 941.042969 214.835938 C 940.679688 215.699219 940.230469 216.515625 939.691406 217.28125 C 939.15625 218.046875 938.542969 218.746094 937.851562 219.378906 C 935.035156 221.949219 930.871094 223.214844 925.339844 223.214844 L 829.785156 223.214844 C 822.136719 223.214844 816.632812 221.519531 813.269531 218.132812 C 809.910156 214.742188 808.226562 209.257812 808.226562 201.679688 L 808.226562 71.199219 C 808.089844 66.953125 808.839844 62.871094 810.472656 58.949219 C 811.183594 57.390625 812.148438 56.007812 813.363281 54.804688 C 814.582031 53.597656 815.972656 52.644531 817.535156 51.949219 C 821.464844 50.347656 825.546875 49.617188 829.785156 49.765625 L 922.625 49.765625 C 928.242188 49.765625 932.40625 51.011719 935.117188 53.5 C 936.480469 54.746094 937.523438 56.222656 938.234375 57.929688 C 938.949219 59.632812 939.269531 61.410156 939.199219 63.257812 C 939.238281 64.179688 939.179688 65.097656 939.019531 66.011719 C 938.859375 66.921875 938.601562 67.804688 938.25 68.660156 C 937.898438 69.511719 937.457031 70.320312 936.929688 71.078125 C 936.398438 71.839844 935.796875 72.53125 935.117188 73.15625 C 932.402344 75.546875 928.238281 76.769531 922.625 76.769531 Z M 922.625 76.769531 " fill-opacity="1" fill-rule="nonzero"/><g clip-path="url(#4c2d8c93f5)"><path fill="#ffffff" d="M 1081.070312 203.597656 L 1072.78125 181.816406 L 1002.195312 181.816406 L 993.90625 204.089844 C 990.679688 212.769531 987.917969 218.628906 985.617188 221.664062 C 983.320312 224.699219 979.570312 226.214844 974.371094 226.214844 C 972.171875 226.222656 970.058594 225.804688 968.027344 224.964844 C 966 224.128906 964.207031 222.933594 962.652344 221.378906 C 961.867188 220.6875 961.160156 219.925781 960.53125 219.089844 C 959.902344 218.25 959.371094 217.359375 958.929688 216.410156 C 958.492188 215.460938 958.15625 214.472656 957.921875 213.453125 C 957.691406 212.433594 957.566406 211.402344 957.550781 210.355469 C 957.578125 207.847656 957.972656 205.398438 958.734375 203.007812 C 959.523438 200.503906 960.828125 196.992188 962.652344 192.472656 L 1007.050781 79.75 L 1011.625 68.074219 C 1013.109375 64.101562 1015 60.332031 1017.300781 56.765625 C 1019.351562 53.707031 1021.984375 51.277344 1025.199219 49.480469 C 1029.035156 47.472656 1033.121094 46.546875 1037.449219 46.703125 C 1041.773438 46.5625 1045.855469 47.488281 1049.695312 49.480469 C 1052.890625 51.253906 1055.53125 53.640625 1057.617188 56.644531 C 1059.652344 59.597656 1061.351562 62.734375 1062.71875 66.054688 C 1064.105469 69.421875 1065.863281 73.894531 1067.984375 79.507812 L 1113.28125 191.636719 C 1116.835938 200.15625 1118.609375 206.355469 1118.609375 210.234375 C 1118.566406 212.34375 1118.109375 214.363281 1117.234375 216.285156 C 1116.355469 218.207031 1115.136719 219.878906 1113.566406 221.296875 C 1112.78125 222.105469 1111.921875 222.828125 1110.988281 223.464844 C 1110.054688 224.097656 1109.066406 224.632812 1108.027344 225.0625 C 1106.984375 225.496094 1105.90625 225.816406 1104.796875 226.027344 C 1103.691406 226.238281 1102.570312 226.335938 1101.441406 226.316406 C 1098.957031 226.390625 1096.589844 225.898438 1094.339844 224.847656 C 1092.367188 223.867188 1090.707031 222.503906 1089.359375 220.765625 C 1087.601562 218.332031 1086.160156 215.726562 1085.03125 212.949219 C 1083.507812 209.410156 1082.1875 206.292969 1081.070312 203.597656 Z M 1011.441406 155.402344 L 1063.3125 155.402344 L 1037.140625 83.773438 Z M 1011.441406 155.402344 " fill-opacity="1" fill-rule="nonzero"/></g><g clip-path="url(#53cb3a6c55)"><path fill="#ffffff" d="M 1276.28125 171.222656 C 1276.339844 176.238281 1275.675781 181.152344 1274.285156 185.972656 C 1272.894531 190.789062 1270.835938 195.304688 1268.117188 199.515625 C 1265.199219 203.878906 1261.714844 207.734375 1257.671875 211.082031 C 1253.628906 214.425781 1249.1875 217.125 1244.355469 219.171875 C 1238.503906 221.667969 1232.457031 223.515625 1226.210938 224.714844 C 1219.964844 225.910156 1213.664062 226.433594 1207.304688 226.277344 C 1190.183594 226.277344 1176.050781 223.046875 1164.90625 216.582031 C 1160.996094 214.289062 1157.414062 211.566406 1154.160156 208.410156 C 1150.90625 205.257812 1148.070312 201.761719 1145.65625 197.921875 C 1143.367188 194.574219 1141.59375 190.972656 1140.335938 187.113281 C 1139.078125 183.257812 1138.390625 179.300781 1138.269531 175.246094 C 1138.261719 174.730469 1138.285156 174.21875 1138.332031 173.703125 C 1138.378906 173.191406 1138.449219 172.683594 1138.546875 172.179688 C 1138.644531 171.675781 1138.765625 171.175781 1138.914062 170.683594 C 1139.0625 170.191406 1139.234375 169.707031 1139.429688 169.230469 C 1139.625 168.757812 1139.847656 168.292969 1140.089844 167.839844 C 1140.332031 167.386719 1140.597656 166.945312 1140.882812 166.519531 C 1141.171875 166.09375 1141.476562 165.679688 1141.804688 165.285156 C 1142.132812 164.890625 1142.480469 164.511719 1142.847656 164.148438 C 1143.214844 163.789062 1143.597656 163.449219 1143.996094 163.125 C 1144.398438 162.800781 1144.8125 162.5 1145.246094 162.21875 C 1145.675781 161.9375 1146.117188 161.679688 1146.574219 161.445312 C 1147.03125 161.207031 1147.5 160.996094 1147.976562 160.804688 C 1148.457031 160.617188 1148.941406 160.453125 1149.4375 160.3125 C 1149.929688 160.171875 1150.433594 160.054688 1150.9375 159.964844 C 1151.445312 159.875 1151.953125 159.808594 1152.464844 159.769531 C 1152.980469 159.730469 1153.492188 159.71875 1154.007812 159.730469 C 1155.746094 159.683594 1157.429688 159.96875 1159.058594 160.585938 C 1160.6875 161.199219 1162.140625 162.097656 1163.417969 163.28125 C 1166.460938 166.265625 1168.699219 169.761719 1170.132812 173.773438 C 1172.015625 178.625 1174.398438 183.21875 1177.277344 187.554688 C 1180.121094 191.523438 1183.734375 194.585938 1188.117188 196.738281 C 1190.992188 198.058594 1193.984375 199.023438 1197.089844 199.636719 C 1200.195312 200.246094 1203.328125 200.484375 1206.488281 200.351562 C 1216.925781 200.351562 1225.398438 197.921875 1231.902344 193.066406 C 1233.398438 192.066406 1234.753906 190.902344 1235.960938 189.574219 C 1237.171875 188.242188 1238.203125 186.785156 1239.054688 185.203125 C 1239.90625 183.617188 1240.550781 181.953125 1240.992188 180.210938 C 1241.433594 178.464844 1241.65625 176.695312 1241.660156 174.898438 C 1241.703125 173.621094 1241.617188 172.355469 1241.40625 171.097656 C 1241.199219 169.84375 1240.867188 168.617188 1240.410156 167.425781 C 1239.957031 166.234375 1239.390625 165.097656 1238.710938 164.019531 C 1238.03125 162.941406 1237.253906 161.941406 1236.375 161.015625 C 1232.488281 157.203125 1227.953125 154.480469 1222.757812 152.851562 C 1217.191406 150.960938 1209.746094 148.917969 1200.425781 146.726562 C 1189.640625 144.386719 1179.203125 140.984375 1169.113281 136.519531 C 1165.144531 134.761719 1161.464844 132.53125 1158.078125 129.820312 C 1154.6875 127.113281 1151.695312 124.019531 1149.105469 120.535156 C 1146.542969 116.855469 1144.625 112.859375 1143.355469 108.554688 C 1142.089844 104.25 1141.535156 99.851562 1141.699219 95.367188 C 1141.632812 90.820312 1142.265625 86.371094 1143.601562 82.023438 C 1144.9375 77.675781 1146.90625 73.640625 1149.515625 69.914062 C 1152.363281 65.988281 1155.714844 62.5625 1159.574219 59.628906 C 1163.433594 56.695312 1167.632812 54.378906 1172.175781 52.683594 C 1177.714844 50.585938 1183.402344 49.035156 1189.238281 48.03125 C 1195.074219 47.023438 1200.953125 46.582031 1206.875 46.703125 C 1216.304688 46.515625 1225.519531 47.835938 1234.515625 50.664062 C 1241.648438 52.945312 1248.105469 56.460938 1253.886719 61.214844 C 1258.582031 65.039062 1262.332031 69.632812 1265.136719 74.996094 C 1267.421875 79.421875 1268.605469 84.121094 1268.6875 89.101562 C 1268.683594 91.199219 1268.300781 93.222656 1267.53125 95.175781 C 1266.761719 97.128906 1265.664062 98.871094 1264.238281 100.410156 C 1263.558594 101.210938 1262.800781 101.929688 1261.964844 102.566406 C 1261.125 103.199219 1260.226562 103.734375 1259.269531 104.167969 C 1258.316406 104.601562 1257.320312 104.925781 1256.292969 105.136719 C 1255.265625 105.351562 1254.222656 105.449219 1253.171875 105.429688 C 1251.503906 105.550781 1249.875 105.347656 1248.28125 104.828125 C 1246.691406 104.304688 1245.261719 103.496094 1243.988281 102.410156 C 1241.226562 99.457031 1238.960938 96.164062 1237.191406 92.53125 C 1234.507812 86.597656 1230.71875 81.488281 1225.820312 77.199219 C 1221.382812 73.527344 1214.28125 71.6875 1204.507812 71.6875 C 1195.429688 71.6875 1188.101562 73.683594 1182.523438 77.667969 C 1176.972656 81.753906 1174.175781 86.445312 1174.175781 91.957031 C 1174.140625 93.574219 1174.367188 95.15625 1174.855469 96.699219 C 1175.34375 98.238281 1176.070312 99.660156 1177.03125 100.960938 C 1179.160156 103.707031 1181.765625 105.878906 1184.851562 107.472656 C 1188.058594 109.242188 1191.414062 110.664062 1194.914062 111.738281 C 1198.304688 112.757812 1203.902344 114.257812 1211.714844 116.230469 C 1220.691406 118.292969 1229.539062 120.816406 1238.25 123.804688 C 1245.46875 126.214844 1252.21875 129.570312 1258.5 133.867188 C 1261.242188 135.804688 1263.714844 138.039062 1265.917969 140.570312 C 1268.121094 143.105469 1269.988281 145.863281 1271.523438 148.851562 C 1273.207031 152.332031 1274.453125 155.964844 1275.257812 159.75 C 1276.058594 163.53125 1276.402344 167.355469 1276.28125 171.222656 Z M 1276.28125 171.222656 " fill-opacity="1" fill-rule="nonzero"/></g><path fill="#ffffff" d="M 1420.582031 76.769531 L 1341.359375 76.769531 L 1341.359375 119.414062 L 1414.292969 119.414062 C 1419.664062 119.414062 1423.683594 120.617188 1426.316406 123.027344 C 1427.648438 124.246094 1428.660156 125.691406 1429.351562 127.355469 C 1430.042969 129.023438 1430.351562 130.757812 1430.277344 132.558594 C 1430.347656 134.375 1430.039062 136.121094 1429.359375 137.804688 C 1428.679688 139.488281 1427.6875 140.957031 1426.378906 142.214844 C 1423.765625 144.691406 1419.738281 145.929688 1414.292969 145.929688 L 1341.359375 145.929688 L 1341.359375 195.308594 L 1423.257812 195.308594 C 1428.792969 195.308594 1432.960938 196.597656 1435.75 199.167969 C 1436.445312 199.816406 1437.066406 200.535156 1437.609375 201.316406 C 1438.148438 202.101562 1438.601562 202.933594 1438.964844 203.8125 C 1439.328125 204.695312 1439.59375 205.601562 1439.757812 206.539062 C 1439.925781 207.480469 1439.992188 208.421875 1439.953125 209.375 C 1439.984375 210.3125 1439.917969 211.238281 1439.746094 212.160156 C 1439.578125 213.082031 1439.3125 213.972656 1438.949219 214.835938 C 1438.585938 215.699219 1438.132812 216.515625 1437.59375 217.28125 C 1437.054688 218.046875 1436.441406 218.746094 1435.75 219.378906 C 1432.953125 221.949219 1428.789062 223.214844 1423.257812 223.214844 L 1327.742188 223.214844 C 1320.09375 223.214844 1314.582031 221.519531 1311.207031 218.132812 C 1307.832031 214.742188 1306.160156 209.257812 1306.1875 201.679688 L 1306.1875 71.199219 C 1306.046875 66.953125 1306.796875 62.871094 1308.433594 58.949219 C 1309.140625 57.394531 1310.101562 56.015625 1311.316406 54.808594 C 1312.527344 53.601562 1313.914062 52.648438 1315.476562 51.949219 C 1319.402344 50.351562 1323.484375 49.625 1327.722656 49.765625 L 1420.5625 49.765625 C 1426.15625 49.765625 1430.320312 51.011719 1433.054688 53.5 C 1434.417969 54.75 1435.453125 56.226562 1436.167969 57.929688 C 1436.882812 59.636719 1437.203125 61.410156 1437.136719 63.257812 C 1437.214844 65.128906 1436.894531 66.925781 1436.183594 68.65625 C 1435.46875 70.386719 1434.425781 71.886719 1433.054688 73.15625 C 1430.339844 75.546875 1426.175781 76.769531 1420.582031 76.769531 Z M 1420.582031 76.769531 " fill-opacity="1" fill-rule="nonzero"/></g></g></svg>