<svg width="16" height="17" viewBox="0 0 16 17" fill="none" xmlns="http://www.w3.org/2000/svg">
<g clip-path="url(#clip0_2001_2174)">
<path d="M14.518 11.5952V15.5766H10.0426V13.098C10.1279 13.098 10.2073 13.098 10.2867 13.098C10.3146 13.1001 10.3427 13.0963 10.3691 13.087C10.3955 13.0776 10.4197 13.0629 10.4401 13.0438C10.4606 13.0246 10.4768 13.0015 10.4879 12.9757C10.4989 12.95 10.5045 12.9223 10.5043 12.8943C10.507 12.8646 10.503 12.8347 10.4924 12.8068C10.4818 12.7789 10.465 12.7538 10.4433 12.7334C10.4216 12.713 10.3954 12.6978 10.367 12.689C10.3385 12.6802 10.3083 12.6781 10.2789 12.6827C9.51631 12.6827 8.75473 12.6827 7.99315 12.6827C7.96538 12.68 7.93737 12.6833 7.91097 12.6923C7.88458 12.7013 7.86042 12.7159 7.8401 12.735C7.81978 12.7541 7.80377 12.7773 7.79315 12.8031C7.78253 12.8289 7.77753 12.8566 7.7785 12.8845C7.7785 13.0187 7.85985 13.0804 7.98531 13.0961C8.0647 13.1039 8.14507 13.0961 8.23329 13.0961V15.5766H7.3041V11.5952H6.08283C6.02097 11.5999 5.95955 11.5816 5.91035 11.5438C5.86116 11.506 5.82764 11.4514 5.81623 11.3905C5.80202 11.3332 5.80896 11.2728 5.83579 11.2202C5.86263 11.1676 5.90754 11.1265 5.96227 11.1044L7.03064 10.5166C8.18624 9.88476 9.34478 9.25582 10.4965 8.621C10.6168 8.54518 10.7559 8.50429 10.8982 8.5029C11.0405 8.50152 11.1803 8.53969 11.3021 8.61316C12.7972 9.43477 14.2939 10.2538 15.7922 11.0701C15.9324 11.1466 16.0373 11.2396 15.9882 11.412C15.9392 11.5845 15.8059 11.5992 15.655 11.5972C15.2845 11.5923 14.913 11.5952 14.518 11.5952ZM10.2602 10.2345C10.2589 10.3203 10.2748 10.4056 10.3068 10.4852C10.3389 10.5649 10.3865 10.6374 10.447 10.6984C10.5074 10.7594 10.5794 10.8078 10.6587 10.8407C10.7381 10.8736 10.8232 10.8903 10.9091 10.8899C11.078 10.8833 11.2378 10.8117 11.3549 10.69C11.4721 10.5682 11.5376 10.4059 11.5376 10.2369C11.5376 10.068 11.4721 9.90567 11.3549 9.78393C11.2378 9.6622 11.078 9.59054 10.9091 9.584C10.8236 9.58348 10.7388 9.59996 10.6597 9.63249C10.5806 9.66502 10.5088 9.71295 10.4484 9.77348C10.388 9.83402 10.3403 9.90595 10.308 9.9851C10.2757 10.0642 10.2595 10.149 10.2602 10.2345ZM12.6655 11.606V12.5935H13.5624V11.6041L12.6655 11.606ZM11.3296 11.606V12.5994H12.2117V11.6011L11.3296 11.606Z" fill="white"/>
<path d="M8.63121 0V0.205728C8.63121 3.12903 8.63121 6.05265 8.63121 8.9766C8.6412 9.03826 8.62921 9.10147 8.59732 9.15519C8.56543 9.2089 8.51567 9.24972 8.45674 9.2705C8.31952 9.3283 8.1921 9.40961 8.03332 9.49582V9.10396L7.18842 9.23131C7.18842 9.44096 7.18842 9.64375 7.18842 9.84556C7.18964 9.87265 7.18521 9.8997 7.17543 9.925C7.16564 9.95029 7.15071 9.97328 7.13158 9.99251C6.90908 10.1248 6.67875 10.2453 6.42391 10.3844V9.34985L5.66919 9.46251C5.66919 9.86711 5.67507 10.2462 5.66429 10.6381C5.65863 10.7317 5.62443 10.8212 5.56627 10.8948C5.48858 10.9822 5.4352 11.0885 5.41146 11.2029C5.38772 11.3174 5.39447 11.4362 5.43101 11.5472C5.46175 11.6636 5.52661 11.7682 5.61726 11.8474C5.70791 11.9267 5.82021 11.977 5.93971 11.992C6.11258 12.0102 6.28637 12.018 6.46017 12.0155C6.59347 12.0155 6.72579 12.0155 6.86987 12.0155V15.5766H5.07032V15.3806C5.07032 10.8174 5.07032 6.25479 5.07032 1.69285C5.06241 1.63739 5.0751 1.58096 5.10598 1.53421C5.13686 1.48747 5.18379 1.45364 5.23792 1.43912C6.31609 0.984556 7.39426 0.520198 8.47242 0.0597591C8.51457 0.0391863 8.56358 0.0244914 8.63121 0ZM8.02547 8.17035V6.59016L7.20705 6.78609V8.32709L8.02547 8.17035ZM7.19137 5.89754C7.46875 5.81917 7.71967 5.75157 7.96667 5.67222C7.99999 5.66144 8.0294 5.58601 8.03038 5.53898C8.03626 5.27252 8.03038 5.00507 8.03038 4.73762V4.07636C7.74907 4.17432 7.49717 4.25367 7.24625 4.34478C7.22915 4.35674 7.2151 4.37254 7.20523 4.39092C7.19535 4.40929 7.18993 4.42973 7.1894 4.45058C7.19038 4.92082 7.19137 5.38812 7.19137 5.89754ZM7.19137 3.46407C7.47267 3.35925 7.72163 3.26814 7.96765 3.17017C7.98386 3.16125 7.99784 3.14876 8.00853 3.13366C8.01923 3.11856 8.02636 3.10123 8.02939 3.08298C8.02939 2.62058 8.02939 2.15917 8.02939 1.66444C7.74613 1.78592 7.48737 1.89466 7.23057 2.00928C7.21821 2.01983 7.20824 2.03288 7.20131 2.04757C7.19438 2.06227 7.19066 2.07827 7.19039 2.09451C7.19137 2.54123 7.19235 2.98698 7.19235 3.46407H7.19137ZM6.42195 4.62203C6.17789 4.7053 5.95833 4.77681 5.7427 4.85714C5.72398 4.86656 5.70786 4.88041 5.69573 4.89748C5.6836 4.91456 5.67583 4.93434 5.67311 4.95511C5.66821 5.40085 5.67311 5.84758 5.67311 6.32663C5.91815 6.25805 6.14554 6.19731 6.37 6.1258C6.39646 6.11796 6.42195 6.05526 6.42293 6.01804C6.42293 5.56152 6.42195 5.10891 6.42195 4.62203ZM5.67017 8.61413C5.91619 8.56907 6.13182 8.5338 6.34549 8.48775C6.36487 8.47886 6.38167 8.46522 6.39436 8.44809C6.40704 8.43096 6.41518 8.41091 6.41803 8.38979C6.41803 7.92739 6.41803 7.46499 6.41803 6.98202C6.17887 7.03982 5.96029 7.08978 5.74466 7.14856C5.72498 7.15727 5.70782 7.17083 5.69479 7.18796C5.68177 7.20509 5.67329 7.22524 5.67017 7.24653C5.66821 7.69129 5.67017 8.13704 5.67017 8.61413ZM5.67017 4.03031C5.89854 3.94508 6.09654 3.86573 6.29943 3.80009C6.32059 3.79557 6.34065 3.78689 6.35844 3.77457C6.37623 3.76225 6.3914 3.74652 6.40307 3.7283C6.41474 3.71007 6.42267 3.68972 6.42642 3.66841C6.43016 3.64711 6.42964 3.62527 6.42489 3.60416C6.41901 3.38472 6.42489 3.16429 6.42489 2.94387V2.35608C6.17103 2.4658 5.94755 2.55789 5.72898 2.65879C5.71239 2.67192 5.69894 2.68858 5.68961 2.70756C5.68029 2.72654 5.67532 2.74737 5.67507 2.76851C5.66821 3.17997 5.66919 3.59045 5.66919 4.03031H5.67017Z" fill="white"/>
<path d="M4.63711 15.5765H1.14777C1.14777 15.5119 1.13797 15.4511 1.13797 15.3904C1.13797 12.247 1.13797 9.10329 1.13797 5.95924C1.13797 5.84462 1.15463 5.77115 1.27715 5.71923C2.36708 5.25977 3.45505 4.79345 4.54302 4.32811C4.56948 4.31733 4.59693 4.3095 4.64103 4.29382L4.63711 15.5765ZM3.2845 13.1832H3.95885V11.8352L3.2845 11.9067V13.1832ZM3.97061 7.70891C3.74223 7.77945 3.54424 7.83822 3.34821 7.90484C3.33109 7.91268 3.31609 7.92451 3.3045 7.93934C3.2929 7.95417 3.28503 7.97157 3.28156 7.99007C3.28156 8.37606 3.28156 8.76302 3.28156 9.18427L3.95199 9.00598C3.95885 8.84531 3.96767 8.68465 3.97355 8.52399C3.97355 8.46031 3.97355 8.39663 3.97355 8.32805L3.97061 7.70891ZM3.95787 11.075V9.77795C3.75105 9.81811 3.556 9.84848 3.36978 9.89942C3.32861 9.91118 3.2845 9.99739 3.28254 10.0532C3.27372 10.3471 3.28254 10.6342 3.28254 10.9241V11.1681L3.95787 11.075ZM3.27568 7.19067C3.507 7.10838 3.70401 7.04372 3.89514 6.96339C3.91732 6.94517 3.93522 6.9223 3.94759 6.8964C3.95995 6.8705 3.96647 6.8422 3.96669 6.8135C3.97453 6.56957 3.96669 6.32367 3.96669 6.0817V5.72216C3.73929 5.82013 3.5462 5.89556 3.35801 5.98373C3.33686 5.99496 3.31855 6.01085 3.30445 6.0302C3.29036 6.04955 3.28085 6.07185 3.27666 6.09541C3.27372 6.44809 3.27568 6.80175 3.27568 7.19067ZM2.6229 13.1872V11.9704L2.04069 12.0243V13.1872H2.6229ZM2.63466 8.13114C2.43863 8.19188 2.26122 8.2438 2.08774 8.30258C2.07368 8.31045 2.0616 8.32143 2.05243 8.33467C2.04326 8.34791 2.03723 8.36307 2.03481 8.379C2.03481 8.74147 2.03481 9.10492 2.03481 9.48601C2.22398 9.44094 2.39354 9.40666 2.55821 9.35767C2.57881 9.34621 2.5964 9.33001 2.60952 9.31043C2.62264 9.29084 2.63092 9.26842 2.63368 9.24501C2.6376 8.8845 2.63466 8.52301 2.63466 8.13114ZM2.04657 10.1708V11.3366C2.21614 11.316 2.37198 11.3023 2.52587 11.2749C2.56605 11.268 2.63074 11.221 2.63074 11.1906C2.63858 10.8164 2.63564 10.4422 2.63564 10.0503L2.04657 10.1708ZM2.63466 6.28841C2.43863 6.36972 2.27397 6.43633 2.11126 6.50883C2.0799 6.52254 2.03579 6.55977 2.03579 6.5872C2.02991 6.93008 2.03579 7.27296 2.03579 7.63446C2.223 7.56784 2.38276 7.51788 2.53567 7.45126C2.56096 7.43858 2.58297 7.42021 2.59997 7.39761C2.61698 7.375 2.62852 7.34877 2.63368 7.32097C2.63956 6.98396 2.63564 6.64892 2.63564 6.28645L2.63466 6.28841Z" fill="white"/>
<path d="M9.05466 0C9.11837 0.0225321 9.17228 0.0391863 9.22324 0.0617184C10.3749 0.551547 11.5266 1.04823 12.6793 1.53708C12.7773 1.57823 12.8243 1.61937 12.8243 1.73301C12.8204 4.09856 12.8204 6.46443 12.8243 8.83063C12.8243 8.86492 12.8194 8.89823 12.8155 8.95015C12.7655 8.9286 12.7234 8.91586 12.6851 8.89431C12.298 8.68369 11.9079 8.47698 11.5256 8.25753C11.3434 8.14115 11.1317 8.07931 10.9155 8.07931C10.6992 8.07931 10.4875 8.14115 10.3053 8.25753C9.94856 8.46326 9.58296 8.6494 9.22128 8.85219C9.17228 8.87864 9.12327 8.90215 9.0576 8.9335L9.05466 0Z" fill="white"/>
<path d="M7.82651 16.999H0.410686C0.069593 16.999 0.000982393 16.9305 2.24091e-06 16.5944C2.24091e-06 16.4837 2.24091e-06 16.373 2.24091e-06 16.2623C-0.000909961 16.2287 0.00483918 16.1952 0.0169196 16.1637C0.029 16.1323 0.0471736 16.1035 0.0703972 16.0792C0.0936207 16.0548 0.121437 16.0352 0.152248 16.0216C0.183059 16.0079 0.216259 16.0005 0.249941 15.9998C0.308012 15.9954 0.366337 15.9954 0.424408 15.9998H15.259C15.6226 15.9998 15.6864 16.0635 15.6864 16.423C15.6864 16.521 15.6864 16.6189 15.6864 16.7169C15.6888 16.7549 15.6831 16.793 15.6697 16.8286C15.6562 16.8642 15.6352 16.8965 15.6082 16.9233C15.5812 16.9501 15.5487 16.9709 15.513 16.9841C15.4773 16.9973 15.4391 17.0028 15.4011 17C15.3492 17 15.2963 17 15.2443 17L7.82651 16.999Z" fill="white"/>
</g>
<defs>
<clipPath id="clip0_2001_2174">
<rect width="16" height="17" fill="white"/>
</clipPath>
</defs>
</svg>
