<svg width="20" height="20" viewBox="0 0 20 20" fill="none" xmlns="http://www.w3.org/2000/svg">
<g clip-path="url(#clip0_2004_2229)">
<path d="M9.99999 14.6667C10.6593 14.6667 11.3037 14.4712 11.8519 14.1049C12.4001 13.7386 12.8273 13.218 13.0796 12.6089C13.3319 11.9999 13.3979 11.3296 13.2693 10.683C13.1407 10.0364 12.8232 9.44249 12.357 8.97631C11.8908 8.51014 11.2969 8.19267 10.6503 8.06405C10.0037 7.93543 9.33347 8.00144 8.72438 8.25374C8.11529 8.50603 7.5947 8.93327 7.22842 9.48143C6.86215 10.0296 6.66666 10.6741 6.66666 11.3333C6.66763 12.2171 7.01913 13.0644 7.64404 13.6893C8.26895 14.3142 9.11623 14.6657 9.99999 14.6667ZM9.99999 8.66667C10.5274 8.66667 11.043 8.82307 11.4815 9.11608C11.92 9.4091 12.2618 9.82558 12.4637 10.3128C12.6655 10.8001 12.7183 11.3363 12.6154 11.8536C12.5125 12.3709 12.2585 12.846 11.8856 13.219C11.5127 13.5919 11.0375 13.8459 10.5202 13.9488C10.0029 14.0517 9.46677 13.9988 8.9795 13.797C8.49223 13.5952 8.07575 13.2534 7.78274 12.8149C7.48972 12.3763 7.33332 11.8608 7.33332 11.3333C7.33412 10.6263 7.61532 9.94852 8.11525 9.44859C8.61517 8.94867 9.29299 8.66746 9.99999 8.66667Z" fill="white"/>
<path d="M19.0727 11.3333H16.9127C16.4057 9.67936 15.4476 8.1995 14.146 7.06L12.294 5.43933C12.4376 5.32482 12.5466 5.17265 12.6088 4.99982C12.671 4.82698 12.6839 4.64026 12.6461 4.4605C12.6084 4.28073 12.5214 4.11499 12.395 3.98177C12.2685 3.84854 12.1076 3.75307 11.93 3.706L13.611 1.18467C13.6511 1.12458 13.6707 1.05308 13.6666 0.980937C13.6626 0.908793 13.6352 0.839911 13.5887 0.784667C13.5803 0.775333 13.5697 0.769667 13.5607 0.761L13.5633 0.758333C13.0499 0.274603 12.3721 0.00360198 11.6667 0C11.1101 0.00103171 10.567 0.171476 10.1097 0.488667C9.07467 0.036 8 -0.417667 6.46667 0.733333C6.39848 0.784461 6.35246 0.859766 6.33808 0.943771C6.3237 1.02778 6.34204 1.1141 6.38933 1.185L8.07033 3.70633C7.91008 3.74855 7.763 3.83036 7.64262 3.94424C7.52223 4.05813 7.43239 4.20044 7.38135 4.35811C7.33031 4.51577 7.3197 4.68374 7.35051 4.84657C7.38132 5.0094 7.45255 5.16188 7.55767 5.29L5.98 6.76267L6.43533 7.24967L8.13133 5.66667H11.5413L13.708 7.56167C14.8636 8.57383 15.7285 9.87575 16.2137 11.3333H14.9273C14.6815 11.3336 14.4458 11.4314 14.2719 11.6052C14.0981 11.7791 14.0003 12.0148 14 12.2607V13.0727C14.001 13.2907 14.0794 13.5012 14.2213 13.6667C14.0794 13.8321 14.001 14.0427 14 14.2607V15.0727C14.0013 15.1704 14.0182 15.2673 14.05 15.3597C13.8467 15.4072 13.6654 15.5218 13.5353 15.6852C13.4052 15.8485 13.3341 16.0509 13.3333 16.2597V17.0717C13.3341 17.2804 13.4052 17.4829 13.5353 17.6462C13.6654 17.8095 13.8467 17.9242 14.05 17.9717C14.0182 18.0641 14.0013 18.161 14 18.2587V19.0707C14.0015 19.1098 14.0054 19.1487 14.0117 19.1873C13.6829 19.2831 13.3424 19.3322 13 19.3333H12.958C12.9846 19.2489 12.9987 19.1611 13 19.0727V18.2607C12.999 18.0427 12.9206 17.8321 12.7787 17.6667C12.9206 17.5012 12.999 17.2907 13 17.0727V16.2607C12.9997 16.0148 12.902 15.7791 12.7281 15.6052C12.5542 15.4314 12.3185 15.3336 12.0727 15.3333H7.92733C7.68147 15.3336 7.44575 15.4314 7.2719 15.6052C7.09805 15.7791 7.00026 16.0148 7 16.2607V17.0727C7.00097 17.2907 7.07942 17.5012 7.22133 17.6667C7.07942 17.8321 7.00097 18.0427 7 18.2607V19.0727C7.0013 19.1611 7.01545 19.2489 7.042 19.3333H7C6.6577 19.3329 6.31716 19.2844 5.98833 19.1893C5.99458 19.1507 5.99848 19.1118 6 19.0727V18.2607C5.99865 18.163 5.98178 18.0661 5.95 17.9737C6.15331 17.9262 6.33465 17.8115 6.4647 17.6482C6.59475 17.4849 6.66591 17.2824 6.66667 17.0737V16.2607C6.66591 16.0519 6.59475 15.8495 6.4647 15.6862C6.33465 15.5228 6.15331 15.4082 5.95 15.3607C5.98178 15.2683 5.99865 15.1714 6 15.0737V14.2607C5.99903 14.0427 5.92058 13.8321 5.77867 13.6667C5.92058 13.5012 5.99903 13.2907 6 13.0727V12.2607C5.99974 12.0148 5.90195 11.7791 5.7281 11.6052C5.55425 11.4314 5.31853 11.3336 5.07267 11.3333H3.72933C4.14945 9.98054 4.89475 8.75134 5.9 7.75333L5.43333 7.27967C4.29996 8.40351 3.47366 9.79917 3.03333 11.3333H0.927333C0.681471 11.3336 0.445753 11.4314 0.271902 11.6052C0.0980506 11.7791 0.000264701 12.0148 0 12.2607V13.0727C0.000965677 13.2907 0.0794169 13.5012 0.221333 13.6667C0.0794169 13.8321 0.000965677 14.0427 0 14.2607V15.0727C0.000754658 15.2814 0.0719126 15.4839 0.201965 15.6472C0.332018 15.8105 0.513362 15.9252 0.716667 15.9727C0.684891 16.0651 0.668013 16.162 0.666667 16.2597V17.0717C0.668013 17.1694 0.684891 17.2663 0.716667 17.3587C0.513029 17.4062 0.331435 17.5212 0.201346 17.6849C0.071257 17.8487 0.000304778 18.0515 0 18.2607V19.0727C0.000264701 19.3185 0.0980506 19.5542 0.271902 19.7281C0.445753 19.902 0.681471 19.9997 0.927333 20H5.07267C5.28724 19.9991 5.49472 19.923 5.659 19.785C6.09187 19.9269 6.54446 19.9995 7 20H13C13.4555 19.9995 13.9081 19.9269 14.341 19.785C14.5053 19.923 14.7128 19.9991 14.9273 20H19.0727C19.3185 19.9997 19.5542 19.902 19.7281 19.7281C19.902 19.5542 19.9997 19.3185 20 19.0727V18.2607C19.9992 18.0519 19.9281 17.8495 19.798 17.6862C19.668 17.5228 19.4866 17.4082 19.2833 17.3607C19.3151 17.2683 19.332 17.1714 19.3333 17.0737V16.2607C19.332 16.163 19.3151 16.0661 19.2833 15.9737C19.4866 15.9262 19.668 15.8115 19.798 15.6482C19.9281 15.4849 19.9992 15.2824 20 15.0737V14.2607C19.999 14.0427 19.9206 13.8321 19.7787 13.6667C19.9206 13.5012 19.999 13.2907 20 13.0727V12.2607C19.9997 12.0148 19.902 11.7791 19.7281 11.6052C19.5542 11.4314 19.3185 11.3336 19.0727 11.3333ZM12.6147 0.9C12.0507 1.0449 11.4559 1.01443 10.9097 0.812667C11.1505 0.716477 11.4074 0.666932 11.6667 0.666667C11.9963 0.671216 12.3206 0.751025 12.6147 0.9ZM9.87033 1.11267C10.62 1.441 11.4477 1.80433 12.5313 1.60333L11.155 3.66667H8.845L7.125 1.08667C8.21633 0.387333 8.954 0.71 9.87033 1.11167V1.11267ZM8.33333 5C8.24493 5 8.16014 4.96488 8.09763 4.90237C8.03512 4.83986 8 4.75507 8 4.66667C8 4.57826 8.03512 4.49348 8.09763 4.43096C8.16014 4.36845 8.24493 4.33333 8.33333 4.33333H11.6667C11.7551 4.33333 11.8399 4.36845 11.9024 4.43096C11.9649 4.49348 12 4.57826 12 4.66667C12 4.75507 11.9649 4.83986 11.9024 4.90237C11.8399 4.96488 11.7551 5 11.6667 5H8.33333ZM6 17.0727C5.99991 17.1418 5.97242 17.208 5.92356 17.2569C5.87469 17.3058 5.80844 17.3332 5.73933 17.3333H1.594C1.52489 17.3332 1.45864 17.3058 1.40978 17.2569C1.36091 17.208 1.33342 17.1418 1.33333 17.0727V16.2607C1.33342 16.1916 1.36091 16.1253 1.40978 16.0764C1.45864 16.0276 1.52489 16.0001 1.594 16H2V16.6667H2.66667V16H3.33333V16.6667H4V16H4.66667V16.6667H5.33333V16H5.73933C5.80844 16.0001 5.87469 16.0276 5.92356 16.0764C5.97242 16.1253 5.99991 16.1916 6 16.2607V17.0727ZM0.666667 12.2607C0.666755 12.1916 0.694246 12.1253 0.743112 12.0764C0.791977 12.0276 0.858227 12.0001 0.927333 12H1.33333V12.6667H2V12H2.66667V12.6667H3.33333V12H4V12.6667H4.66667V12H5.07267C5.14177 12.0001 5.20802 12.0276 5.25689 12.0764C5.30575 12.1253 5.33325 12.1916 5.33333 12.2607V13.0727C5.33325 13.1418 5.30575 13.208 5.25689 13.2569C5.20802 13.3058 5.14177 13.3332 5.07267 13.3333H0.927333C0.858227 13.3332 0.791977 13.3058 0.743112 13.2569C0.694246 13.208 0.666755 13.1418 0.666667 13.0727V12.2607ZM0.666667 14.2607C0.666755 14.1916 0.694246 14.1253 0.743112 14.0764C0.791977 14.0276 0.858227 14.0001 0.927333 14H1.33333V14.6667H2V14H2.66667V14.6667H3.33333V14H4V14.6667H4.66667V14H5.07267C5.14177 14.0001 5.20802 14.0276 5.25689 14.0764C5.30575 14.1253 5.33325 14.1916 5.33333 14.2607V15.0727C5.33325 15.1418 5.30575 15.208 5.25689 15.2569C5.20802 15.3058 5.14177 15.3332 5.07267 15.3333H0.927333C0.858227 15.3332 0.791977 15.3058 0.743112 15.2569C0.694246 15.208 0.666755 15.1418 0.666667 15.0727V14.2607ZM5.33333 19.0727C5.33325 19.1418 5.30575 19.208 5.25689 19.2569C5.20802 19.3058 5.14177 19.3332 5.07267 19.3333H0.927333C0.858227 19.3332 0.791977 19.3058 0.743112 19.2569C0.694246 19.208 0.666755 19.1418 0.666667 19.0727V18.2607C0.666755 18.1916 0.694246 18.1253 0.743112 18.0764C0.791977 18.0276 0.858227 18.0001 0.927333 18H1.33333V18.6667H2V18H2.66667V18.6667H3.33333V18H4V18.6667H4.66667V18H5.07267C5.14177 18.0001 5.20802 18.0276 5.25689 18.0764C5.30575 18.1253 5.33325 18.1916 5.33333 18.2607V19.0727ZM7.66667 16.2607C7.66676 16.1916 7.69425 16.1253 7.74311 16.0764C7.79198 16.0276 7.85823 16.0001 7.92733 16H8.33333V16.6667H9V16H9.66667V16.6667H10.3333V16H11V16.6667H11.6667V16H12.0727C12.1418 16.0001 12.208 16.0276 12.2569 16.0764C12.3058 16.1253 12.3332 16.1916 12.3333 16.2607V17.0727C12.3332 17.1418 12.3058 17.208 12.2569 17.2569C12.208 17.3058 12.1418 17.3332 12.0727 17.3333H7.92733C7.85823 17.3332 7.79198 17.3058 7.74311 17.2569C7.69425 17.208 7.66676 17.1418 7.66667 17.0727V16.2607ZM7.92733 19.3333C7.85823 19.3332 7.79198 19.3058 7.74311 19.2569C7.69425 19.208 7.66676 19.1418 7.66667 19.0727V18.2607C7.66676 18.1916 7.69425 18.1253 7.74311 18.0764C7.79198 18.0276 7.85823 18.0001 7.92733 18H8.33333V18.6667H9V18H9.66667V18.6667H10.3333V18H11V18.6667H11.6667V18H12.0727C12.1418 18.0001 12.208 18.0276 12.2569 18.0764C12.3058 18.1253 12.3332 18.1916 12.3333 18.2607V19.0727C12.3332 19.1418 12.3058 19.208 12.2569 19.2569C12.208 19.3058 12.1418 19.3332 12.0727 19.3333H7.92733ZM14.6667 12.2607C14.6668 12.1916 14.6942 12.1253 14.7431 12.0764C14.792 12.0276 14.8582 12.0001 14.9273 12H15.3333V12.6667H16V12H16.6667V12.6667H17.3333V12H18V12.6667H18.6667V12H19.0727C19.1418 12.0001 19.208 12.0276 19.2569 12.0764C19.3058 12.1253 19.3332 12.1916 19.3333 12.2607V13.0727C19.3332 13.1418 19.3058 13.208 19.2569 13.2569C19.208 13.3058 19.1418 13.3332 19.0727 13.3333H14.9273C14.8582 13.3332 14.792 13.3058 14.7431 13.2569C14.6942 13.208 14.6668 13.1418 14.6667 13.0727V12.2607ZM14 16.2607C14.0001 16.1916 14.0276 16.1253 14.0764 16.0764C14.1253 16.0276 14.1916 16.0001 14.2607 16H14.6667V16.6667H15.3333V16H16V16.6667H16.6667V16H17.3333V16.6667H18V16H18.406C18.4751 16.0001 18.5414 16.0276 18.5902 16.0764C18.6391 16.1253 18.6666 16.1916 18.6667 16.2607V17.0727C18.6666 17.1418 18.6391 17.208 18.5902 17.2569C18.5414 17.3058 18.4751 17.3332 18.406 17.3333H14.2607C14.1916 17.3332 14.1253 17.3058 14.0764 17.2569C14.0276 17.208 14.0001 17.1418 14 17.0727V16.2607ZM19.3333 19.0727C19.3332 19.1418 19.3058 19.208 19.2569 19.2569C19.208 19.3058 19.1418 19.3332 19.0727 19.3333H14.9273C14.8582 19.3332 14.792 19.3058 14.7431 19.2569C14.6942 19.208 14.6668 19.1418 14.6667 19.0727V18.2607C14.6668 18.1916 14.6942 18.1253 14.7431 18.0764C14.792 18.0276 14.8582 18.0001 14.9273 18H15.3333V18.6667H16V18H16.6667V18.6667H17.3333V18H18V18.6667H18.6667V18H19.0727C19.1418 18.0001 19.208 18.0276 19.2569 18.0764C19.3058 18.1253 19.3332 18.1916 19.3333 18.2607V19.0727ZM19.3333 15.0727C19.3332 15.1418 19.3058 15.208 19.2569 15.2569C19.208 15.3058 19.1418 15.3332 19.0727 15.3333H14.9273C14.8582 15.3332 14.792 15.3058 14.7431 15.2569C14.6942 15.208 14.6668 15.1418 14.6667 15.0727V14.2607C14.6668 14.1916 14.6942 14.1253 14.7431 14.0764C14.792 14.0276 14.8582 14.0001 14.9273 14H15.3333V14.6667H16V14H16.6667V14.6667H17.3333V14H18V14.6667H18.6667V14H19.0727C19.1418 14.0001 19.208 14.0276 19.2569 14.0764C19.3058 14.1253 19.3332 14.1916 19.3333 14.2607V15.0727Z" fill="white"/>
<path d="M11.3501 10.2869V10.5213H9.1875V10.2869H11.3501ZM11.3501 10.6087V10.843H9.1875V10.6087H11.3501ZM10.2805 11.2862H9.73509V10.9155H10.2805C10.3679 10.9155 10.4382 10.8988 10.4915 10.8654C10.5447 10.8313 10.5835 10.7876 10.6076 10.7344C10.6317 10.6804 10.6442 10.6229 10.6449 10.5618C10.6442 10.4993 10.6317 10.44 10.6076 10.3839C10.5835 10.3271 10.5447 10.2812 10.4915 10.2464C10.4382 10.2109 10.3683 10.1932 10.2816 10.1932H9.89169V12H9.43572V9.81818H10.2816C10.4563 9.81818 10.6051 9.85121 10.728 9.91726C10.8516 9.98331 10.9457 10.0724 11.0103 10.1847C11.0756 10.2962 11.1087 10.4212 11.1094 10.5597C11.1087 10.696 11.0756 10.8192 11.0103 10.9293C10.945 11.0387 10.8505 11.1257 10.7269 11.1903C10.604 11.2543 10.4553 11.2862 10.2805 11.2862Z" fill="white"/>
</g>
<defs>
<clipPath id="clip0_2004_2229">
<rect width="20" height="20" fill="white"/>
</clipPath>
</defs>
</svg>
