<svg width="20" height="20" viewBox="0 0 20 20" fill="none" xmlns="http://www.w3.org/2000/svg">
<path d="M17.7667 12.0416L16.1917 12.5666L16.9333 14.05C17.0085 14.2052 17.0337 14.38 17.0053 14.5502C16.9769 14.7203 16.8965 14.8775 16.775 15L15 16.775C14.8769 16.8982 14.7182 16.9798 14.5463 17.0082C14.3744 17.0366 14.1979 17.0104 14.0417 16.9333L12.5583 16.1916L12.0333 17.7666C11.9779 17.9308 11.8726 18.0736 11.7322 18.1752C11.5918 18.2768 11.4233 18.332 11.25 18.3333H8.74999C8.57529 18.3338 8.40486 18.2793 8.2628 18.1776C8.12074 18.0759 8.01423 17.9322 7.95832 17.7666L7.43332 16.1916L5.94999 16.9333C5.79473 17.0085 5.61996 17.0336 5.4498 17.0053C5.27964 16.9769 5.12248 16.8965 4.99999 16.775L3.22499 15C3.10173 14.8768 3.02016 14.7182 2.99176 14.5463C2.96336 14.3744 2.98956 14.1979 3.06666 14.0416L3.80833 12.5583L2.23333 12.0333C2.06915 11.9779 1.92635 11.8726 1.82478 11.7322C1.72322 11.5918 1.66795 11.4233 1.66666 11.25V8.74998C1.66621 8.57528 1.72068 8.40485 1.82236 8.26279C1.92405 8.12073 2.06781 8.01422 2.23333 7.95831L3.80833 7.43331L3.06666 5.94998C2.99148 5.79472 2.96633 5.61995 2.99469 5.44979C3.02305 5.27963 3.10352 5.12246 3.22499 4.99998L4.99999 3.22498C5.12313 3.10172 5.2818 3.02015 5.4537 2.99175C5.6256 2.96335 5.80208 2.98954 5.95832 3.06665L7.44166 3.80831L7.96666 2.23331C8.02256 2.0678 8.12907 1.92403 8.27113 1.82235C8.4132 1.72066 8.58362 1.6662 8.75832 1.66665H11.2583C11.433 1.6662 11.6035 1.72066 11.7455 1.82235C11.8876 1.92403 11.9941 2.0678 12.05 2.23331L12.575 3.80831L14.0583 3.06665C14.2126 2.99336 14.3857 2.96924 14.5541 2.99756C14.7225 3.02588 14.8782 3.10527 15 3.22498L16.775 4.99998C16.8983 5.12312 16.9798 5.28179 17.0082 5.45369C17.0366 5.62559 17.0104 5.80207 16.9333 5.95831L16.1917 7.44165L17.7667 7.96665C17.9308 8.02209 18.0736 8.12734 18.1752 8.26773C18.2768 8.40813 18.332 8.5767 18.3333 8.74998V11.25C18.3338 11.4247 18.2793 11.5951 18.1776 11.7372C18.0759 11.8792 17.9322 11.9857 17.7667 12.0416ZM16.6667 9.34998L15.6667 9.01665C15.4367 8.94206 15.2257 8.81833 15.0484 8.65406C14.871 8.48979 14.7315 8.2889 14.6395 8.06533C14.5476 7.84176 14.5053 7.60086 14.5158 7.35933C14.5262 7.11781 14.5891 6.88145 14.7 6.66665L15.175 5.71665L14.2583 4.79998L13.3333 5.29998C13.1196 5.40645 12.8855 5.46576 12.6469 5.4739C12.4083 5.48204 12.1707 5.43881 11.9503 5.34715C11.7298 5.25549 11.5316 5.11753 11.3691 4.94262C11.2066 4.7677 11.0835 4.55991 11.0083 4.33331L10.675 3.33331H9.34999L9.01666 4.33331C8.94207 4.56327 8.81835 4.77424 8.65407 4.9516C8.4898 5.12896 8.28891 5.26846 8.06534 5.36043C7.84177 5.4524 7.60087 5.49462 7.35935 5.48418C7.11782 5.47375 6.88146 5.41089 6.66666 5.29998L5.71666 4.82498L4.79999 5.74165L5.29999 6.66665C5.4109 6.88145 5.47376 7.11781 5.4842 7.35933C5.49463 7.60086 5.45241 7.84176 5.36044 8.06533C5.26847 8.2889 5.12897 8.48979 4.95161 8.65406C4.77425 8.81833 4.56328 8.94206 4.33333 9.01665L3.33333 9.34998V10.65L4.33333 10.9833C4.56328 11.0579 4.77425 11.1816 4.95161 11.3459C5.12897 11.5102 5.26847 11.7111 5.36044 11.9346C5.45241 12.1582 5.49463 12.3991 5.4842 12.6406C5.47376 12.8821 5.4109 13.1185 5.29999 13.3333L4.82499 14.2583L5.74166 15.175L6.66666 14.7C6.88146 14.5891 7.11782 14.5262 7.35935 14.5158C7.60087 14.5053 7.84177 14.5476 8.06534 14.6395C8.28891 14.7315 8.4898 14.871 8.65407 15.0484C8.81835 15.2257 8.94207 15.4367 9.01666 15.6666L9.34999 16.6666H10.65L10.9833 15.6666C11.0579 15.4367 11.1816 15.2257 11.3459 15.0484C11.5102 14.871 11.7111 14.7315 11.9346 14.6395C12.1582 14.5476 12.3991 14.5053 12.6406 14.5158C12.8822 14.5262 13.1185 14.5891 13.3333 14.7L14.2833 15.175L15.2 14.2583L14.7 13.3333C14.5935 13.1196 14.5342 12.8855 14.5261 12.6469C14.5179 12.4083 14.5612 12.1707 14.6528 11.9502C14.7445 11.7298 14.8824 11.5316 15.0574 11.3691C15.2323 11.2066 15.4401 11.0835 15.6667 11.0083L16.6667 10.675V9.34998ZM9.99999 13.3333C9.34072 13.3333 8.69625 13.1378 8.14809 12.7715C7.59993 12.4053 7.17268 11.8847 6.92039 11.2756C6.6681 10.6665 6.60209 9.99628 6.73071 9.34968C6.85932 8.70307 7.17679 8.10913 7.64297 7.64296C8.10914 7.17678 8.70309 6.85931 9.34969 6.7307C9.99629 6.60208 10.6665 6.66809 11.2756 6.92038C11.8847 7.17267 12.4053 7.59992 12.7716 8.14808C13.1378 8.69624 13.3333 9.34071 13.3333 9.99998C13.3333 10.884 12.9821 11.7319 12.357 12.357C11.7319 12.9821 10.884 13.3333 9.99999 13.3333ZM9.99999 8.33331C9.67035 8.33331 9.34812 8.43106 9.07404 8.6142C8.79996 8.79733 8.58634 9.05763 8.46019 9.36217C8.33405 9.66672 8.30104 10.0018 8.36535 10.3251C8.42966 10.6484 8.58839 10.9454 8.82148 11.1785C9.05457 11.4116 9.35154 11.5703 9.67484 11.6346C9.99814 11.6989 10.3333 11.6659 10.6378 11.5398C10.9423 11.4136 11.2026 11.2 11.3858 10.9259C11.5689 10.6518 11.6667 10.3296 11.6667 9.99998C11.6667 9.55795 11.4911 9.13403 11.1785 8.82147C10.8659 8.50891 10.442 8.33331 9.99999 8.33331Z" fill="white"/>
</svg>
