<svg width="20" height="20" viewBox="0 0 20 20" fill="none" xmlns="http://www.w3.org/2000/svg">
<path d="M17.5 16.6667H3.33332V2.50002C3.33332 2.27901 3.24553 2.06704 3.08925 1.91076C2.93297 1.75448 2.721 1.66669 2.49999 1.66669C2.27898 1.66669 2.06701 1.75448 1.91073 1.91076C1.75445 2.06704 1.66666 2.27901 1.66666 2.50002V17.5C1.66666 17.721 1.75445 17.933 1.91073 18.0893C2.06701 18.2456 2.27898 18.3334 2.49999 18.3334H17.5C17.721 18.3334 17.933 18.2456 18.0892 18.0893C18.2455 17.933 18.3333 17.721 18.3333 17.5C18.3333 17.279 18.2455 17.067 18.0892 16.9108C17.933 16.7545 17.721 16.6667 17.5 16.6667Z" fill="white"/>
<path d="M6.66667 14.1667V10C6.66667 9.77899 6.57887 9.56702 6.42259 9.41074C6.26631 9.25446 6.05435 9.16667 5.83333 9.16667C5.61232 9.16667 5.40036 9.25446 5.24408 9.41074C5.0878 9.56702 5 9.77899 5 10V14.1667C5 14.3877 5.0878 14.5996 5.24408 14.7559C5.40036 14.9122 5.61232 15 5.83333 15C6.05435 15 6.26631 14.9122 6.42259 14.7559C6.57887 14.5996 6.66667 14.3877 6.66667 14.1667ZM10 14.1667V6.66667C10 6.44565 9.9122 6.23369 9.75592 6.07741C9.59964 5.92113 9.38768 5.83333 9.16667 5.83333C8.94565 5.83333 8.73369 5.92113 8.57741 6.07741C8.42113 6.23369 8.33333 6.44565 8.33333 6.66667V14.1667C8.33333 14.3877 8.42113 14.5996 8.57741 14.7559C8.73369 14.9122 8.94565 15 9.16667 15C9.38768 15 9.59964 14.9122 9.75592 14.7559C9.9122 14.5996 10 14.3877 10 14.1667ZM13.3333 14.1667V5C13.3333 4.77899 13.2455 4.56702 13.0893 4.41074C12.933 4.25446 12.721 4.16667 12.5 4.16667C12.279 4.16667 12.067 4.25446 11.9107 4.41074C11.7545 4.56702 11.6667 4.77899 11.6667 5V14.1667C11.6667 14.3877 11.7545 14.5996 11.9107 14.7559C12.067 14.9122 12.279 15 12.5 15C12.721 15 12.933 14.9122 13.0893 14.7559C13.2455 14.5996 13.3333 14.3877 13.3333 14.1667ZM16.6667 14.1667V3.33333C16.6667 3.11232 16.5789 2.90036 16.4226 2.74408C16.2663 2.5878 16.0543 2.5 15.8333 2.5C15.6123 2.5 15.4004 2.5878 15.2441 2.74408C15.0878 2.90036 15 3.11232 15 3.33333V14.1667C15 14.3877 15.0878 14.5996 15.2441 14.7559C15.4004 14.9122 15.6123 15 15.8333 15C16.0543 15 16.2663 14.9122 16.4226 14.7559C16.5789 14.5996 16.6667 14.3877 16.6667 14.1667Z" fill="white"/>
</svg>
